
<svg xmlns="http://www.w3.org/2000/svg" width="128" height="128" fill="none">
  <path fill="#C7F0FF" d="M122.815 69.7401c.001-8.4331-1.939-16.7594-5.676-24.3684-3.738-7.6089-9.179-14.3076-15.925-19.6047-6.7459-5.2971-14.625-9.0583-23.0597-11.0077-8.4347-1.9495-17.211-2.0377-25.6853-.2583-8.4743 1.7794-16.4317 5.3814-23.2886 10.5417-6.8569 5.1603-12.4394 11.7482-16.3381 19.2804-3.89862 7.5322-6.0146 15.8177-6.19271 24.2489-.17811 8.4313 1.58617 16.7943 5.16341 24.476h105.826c3.418-7.3204 5.182-15.2682 5.176-23.3079Z"/>
  <path fill="#CCF7AD" d="M11.813 93.048c4.6075 9.894 12.0489 18.286 21.4331 24.172 9.3843 5.886 20.3139 9.017 31.48 9.017s22.0956-3.131 31.4799-9.017c9.384-5.886 16.826-14.278 21.433-24.172H11.813Z"/>
  <path fill="#45413C" fill-rule="evenodd" d="M6.53497 93.048c0-.4605.37093-.8339.82848-.8339H120.637c.457 0 .828.3734.828.8339 0 .4606-.371.8339-.828.8339H7.36345c-.45755 0-.82848-.3733-.82848-.8339ZM0 93.048c0-.4605.370923-.8339.828479-.8339H4.45903c.45755 0 .82848.3734.82848.8339 0 .4606-.37093.8339-.82848.8339H.828479C.370923 93.8819 0 93.5086 0 93.048ZM122.713 93.048c0-.4605.37-.8339.828-.8339h3.631c.457 0 .828.3734.828.8339 0 .4606-.371.8339-.828.8339h-3.631c-.458 0-.828-.3733-.828-.8339Z" clip-rule="evenodd"/>
  <path fill="#45413C" d="M19.7886 125.296c0 .717 1.9528 1.405 5.4287 1.912 3.4759.507 8.1903.792 13.106.792 4.9157 0 9.6301-.285 13.106-.792 3.4759-.507 5.4287-1.195 5.4287-1.912 0-.717-1.9528-1.404-5.4287-1.912-3.4759-.507-8.1903-.791-13.106-.791-4.9157 0-9.6301.284-13.106.791-3.4759.508-5.4287 1.195-5.4287 1.912Z" opacity=".15"/>
  <path fill="#87898C" d="M97.08 52.2803h-2.781c-1.7191-.003-3.3669-.6689-4.5821-1.8517-1.2152-1.1829-1.8986-2.7862-1.9006-4.4584v-1.8025h3.7032v1.8025c.0008.717.2938 1.4044.8149 1.9115.521.5071 1.2276.7925 1.9646.7936h2.781v3.605Z"/>
  <path fill="#45413C" fill-rule="evenodd" d="M86.9879 44.1677c0-.4605.3709-.8339.8285-.8339h3.7031c.4576 0 .8285.3734.8285.8339v1.8016c0 .0002 0-.0001 0 0 .0007.4867.1994.9597.5623 1.3129.3639.3541.863.5583 1.3894.5592h2.7804c.4575 0 .8285.3734.8285.8339v3.605c0 .4606-.371.8339-.8285.8339h-2.7824c-1.9295-.0034-3.7844-.7505-5.1566-2.0862-1.3732-1.3366-2.151-3.1545-2.1532-5.0568v-1.8035Zm1.657.8339v.9681c.0018 1.442.5909 2.8305 1.648 3.8594 1.0581 1.0299 2.4985 1.6145 4.0071 1.6173h1.9516v-1.9372h-1.9538c-.9475-.0014-1.8611-.368-2.5393-1.028-.679-.6609-1.0664-1.563-1.0674-2.5101v-.9695h-2.0462Z" clip-rule="evenodd"/>
  <path fill="#BDBEC0" d="m89.6665 37.8576-2.781 6.3101h5.5605l-2.7795-6.3101Z"/>
  <path fill="#45413C" fill-rule="evenodd" d="M89.6666 37.0237c.3276.0001.6245.1945.7573.4959l2.7795 6.3101c.1136.258.0899.5562-.0629.7928-.1529.2365-.4142.3791-.6945.3791h-5.5605c-.2804 0-.5417-.1427-.6945-.3792-.1529-.2366-.1765-.5349-.0628-.7928l2.781-6.3101c.1328-.3015.4297-.4958.7574-.4958Zm-1.5073 6.3101h3.0131l-1.5061-3.4192-1.507 3.4192Z" clip-rule="evenodd"/>
  <path fill="#BDBEC0" d="M110.981 56.7879H92.446l-1.853 41.4655h22.241l-1.853-41.4655Z"/>
  <path fill="#FF6242" d="M112.834 56.7893s-11.121-13.7474-11.121-22.5366c0 8.7892-11.12 22.5366-11.12 22.5366h22.241Z"/>
  <path fill="#45413C" fill-rule="evenodd" d="M101.713 33.4188c.457 0 .828.3733.828.8339 0 2.0383.65 4.4277 1.674 6.9092 1.02 2.4701 2.387 4.9715 3.763 7.2172 1.375 2.2434 2.752 4.2172 3.785 5.6306.517.7063.947 1.2716 1.247 1.6594.15.1939.267.3433.347.4438.039.0503.07.0883.09.1134l.022.0281.006.0067.001.0014c0 .0001 0 0 0 0M101.713 39.116c.273.8931.604 1.793.972 2.686 1.066 2.5796 2.479 5.163 3.883 7.4528 1.405 2.2921 2.809 4.3045 3.861 5.7434.26.3552.498.6758.71.9572H92.2877c.212-.2815.4504-.602.7101-.9573 1.0518-1.4389 2.4553-3.4512 3.8602-5.7433 1.4035-2.2899 2.8172-4.8733 3.882-7.4528.369-.893.699-1.7929.973-2.686Zm-.829-4.8633c0 2.0384-.649 4.4277-1.6738 6.9092-1.0199 2.4701-2.386 4.9715-3.7624 7.2172-1.3751 2.2434-2.7515 4.2172-3.7846 5.6307-.5163.7062-.9461 1.2715-1.2461 1.6593-.15.1939-.2674.3434-.347.4439-.0398.0502-.0701.0882-.0903.1134l-.0225.028-.0066.0082m11.7623-22.8438c-.458 0-.829.3733-.829.8339l.829-.8339Z" clip-rule="evenodd"/>
  <path fill="#915E3A" d="M105.42 91.0421c-.019-.9439-.418-1.8429-1.111-2.5038-.693-.661-1.625-1.0312-2.596-1.0312-.97 0-1.9021.3702-2.5952 1.0312-.693.6609-1.092 1.5599-1.1112 2.5038v7.2113h7.4134v-7.2113Z"/>
  <path fill="#45413C" fill-rule="evenodd" d="M98.548 87.9329c.8498-.8103 1.987-1.2597 3.165-1.2597 1.179 0 2.316.4494 3.166 1.2597.85.8113 1.346 1.9208 1.369 3.0921l.001.0171v7.2114c0 .4605-.371.8338-.829.8338h-7.4134c-.4576 0-.8285-.3733-.8285-.8338v-7.2114l.0002-.0171c.0238-1.1713.519-2.2808 1.3697-3.0921Zm3.165.4081c-.762 0-1.489.2911-2.0254.8026-.5334.5088-.8359 1.194-.8525 1.9076v6.3684h5.7569v-6.3684c-.017-.7136-.319-1.3988-.853-1.9076-.536-.5115-1.263-.8026-2.026-.8026Z" clip-rule="evenodd"/>
  <path fill="#00B8F0" d="M98.0051 69.4081c0 .9565.3906 1.8738 1.0859 2.5501.6953.6763 1.638 1.0563 2.622 1.0563.983 0 1.926-.38 2.621-1.0563.696-.6763 1.086-1.5936 1.086-2.5501 0-.9565-.39-1.8738-1.086-2.5501-.695-.6763-1.638-1.0563-2.621-1.0563-.984 0-1.9267.38-2.622 1.0563-.6953.6763-1.0859 1.5936-1.0859 2.5501Z"/>
  <path fill="#4ACFFF" d="M99.0929 71.9579c-.6952-.6761-1.0859-1.5931-1.086-2.5493-.0001-.9562.3902-1.8733 1.0852-2.5495.695-.6763 1.6379-1.0562 2.6209-1.0564.983-.0001 1.926.3796 2.621 1.0557l-5.2411 5.0995Z"/>
  <path fill="#45413C" fill-rule="evenodd" d="M98.5153 66.2584c.8527-.8294 2.0037-1.2906 3.1977-1.2906 1.194 0 2.344.4612 3.197 1.2906.854.8303 1.339 1.9627 1.339 3.1497 0 1.187-.485 2.3194-1.339 3.1497-.853.8295-2.003 1.2906-3.197 1.2906s-2.345-.4611-3.1977-1.2906c-.8536-.8303-1.3387-1.9627-1.3387-3.1497 0-1.187.4851-2.3194 1.3387-3.1497Zm3.1977.3772c-.773 0-1.508.2988-2.0463.8221-.5369.5223-.8331 1.2245-.8331 1.9504s.2962 1.4281.8331 1.9505c.5383.5232 1.2733.822 2.0463.822.772 0 1.508-.2988 2.046-.822.536-.5224.833-1.2246.833-1.9505s-.297-1.4281-.833-1.9504c-.538-.5233-1.274-.8221-2.046-.8221Z" clip-rule="evenodd"/>
  <path fill="#87898C" d="m111.181 61.2955-.2-4.5076H92.4461l-.2019 4.5076h18.9368Z"/>
  <path fill="#45413C" fill-rule="evenodd" d="M91.6184 56.7504c.0199-.4456.3846-.7965.8276-.7965h18.535c.443 0 .807.3509.827.7965l1.853 41.4655c.011.2274-.072.4492-.228.6137-.157.1646-.373.2577-.599.2577H90.593c-.2262 0-.4425-.0931-.5988-.2577-.1563-.1645-.239-.3863-.2288-.6137l1.853-41.4655Zm1.6197.8713-1.7785 39.7978h20.5074l-1.778-39.7978H93.2381Z" clip-rule="evenodd"/>
  <path fill="#fff" d="M81.3249 30.6463c.6927-.0044 1.3726.181 1.962.535.5894.354 1.0643.8622 1.3706 1.4665.3062.6044.4314 1.2804.361 1.9507-.0703.6703-.3332 1.3077-.7586 1.8395.2354.1612.4282.3745.5625.6222.1343.2478.2063.523.2101.8031-.0136.4695-.2148.9153-.561 1.2428-.3461.3274-.8099.5106-1.2928.5106s-.9467-.1832-1.2928-.5106c-.3462-.3275-.5475-.7733-.561-1.2428-.9704-.0187-1.8945-.4068-2.574-1.081-.6795-.6741-1.0601-1.5806-1.0601-2.5247 0-.9441.3806-1.8506 1.0601-2.5247.6795-.6742 1.6036-1.0623 2.574-1.081v-.0056Z"/>
  <path fill="#45413C" fill-rule="evenodd" d="M81.4157 31.4809c-.0246.0027-.0496.0043-.0749.0048-.7624.0147-1.4828.3197-2.0083.8411-.5246.5204-.8132 1.2142-.8132 1.9308 0 .7166.2886 1.4104.8132 1.9309.5255.5213 1.2459.8264 2.0083.841.442.0085.7995.3648.8123.8096.007.2434.1112.4807.3001.6593.1897.1795.4496.2844.7255.2844.2759 0 .5357-.1049.7255-.2844.1842-.1743.288-.4044.2994-.6415-.0046-.1373-.0411-.273-.1085-.3973-.0703-.1297-.1728-.2442-.3013-.3322-.1912-.131-.3194-.3364-.3534-.5667-.034-.2303.0291-.4645.1742-.6458.3269-.4085.5267-.8953.58-1.404.0534-.5086-.0413-1.0226-.2751-1.4841-.2341-.4618-.5992-.8543-1.0572-1.1294-.4341-.2607-.9336-.405-1.4466-.4165Zm-.096-1.6685c.8424-.0053 1.6712.22 2.3917.6528.7207.4329 1.3056 1.0569 1.6841 1.8038.3786.7471.5342 1.5851.4469 2.417-.0604.5764-.2356 1.1319-.5117 1.6365.0813.1066.1546.2196.219.3383.1983.366.3056.7743.3111 1.1912.0002.0118.0001.0236-.0002.0354-.02.6956-.3182 1.3501-.8217 1.8264-.5026.4753-1.1704.7368-1.8602.7368s-1.3576-.2615-1.8602-.7368c-.3178-.3006-.5538-.6722-.6897-1.0803-.9259-.156-1.7882-.5912-2.4595-1.2573-.8344-.8278-1.307-1.947-1.307-3.1186 0-1.1716.4726-2.2908 1.307-3.1186.8082-.8019 1.8933-1.2693 3.0329-1.3175.0384-.0057.0776-.0088.1175-.0091Z" clip-rule="evenodd"/>
  <path fill="#E0E0E0" d="M38.3233 81.3065c3.8919-3.7858 6.6729-18.3893 6.6729-18.3893.5548 3.249 6.6715 7.5716 6.6715 7.5716-4.0778-2.7038-1.1124-12.9804-1.1124-12.9804 1.6686 1.8024 4.4482 0 4.4482 0-5.0029-2.8846-3.3401-19.4714-3.3401-19.4714 0-3.4426-1.406-6.7442-3.9085-9.1785-2.5026-2.4343-5.8968-3.8019-9.436-3.8019-3.5391 0-6.9333 1.3676-9.4359 3.8019s-3.9085 5.7359-3.9085 9.1785c0 0 1.6671 16.5868-3.3401 19.4714 0 0 2.781 1.8024 4.4496 0 0 0 2.9654 10.2766-1.1124 12.9804 0 0 6.1153-4.3269 6.6715-7.5716.0073 0 2.7883 14.6035 6.6802 18.3893Z"/>
  <path fill="#45413C" fill-rule="evenodd" d="M28.3073 28.2588c2.6599-2.5874 6.2617-4.0361 10.0116-4.0361 3.75 0 7.3518 1.4487 10.0117 4.0361 2.6609 2.5883 4.1612 6.105 4.1612 9.7782 0 .0279-.0013.0558-.0041.0836 0 .0001 0 0 0 0l-.8243-.0836h-.8285c0-.0133 0-.0266-.0001-.0399-.0108-3.1977-1.3211-6.2682-3.6557-8.539-2.3452-2.2812-5.5318-3.5676-8.8602-3.5676-3.3284 0-6.515 1.2864-8.8602 3.5676-2.3345 2.2708-3.6448 5.3412-3.6557 8.5389l.0008.008c.0032.0329.0077.0811.0133.1438.0113.1253.027.3082.0452.5413.0363.4661.0824 1.1335.1219 1.9427.0789 1.6167.1317 3.8084.0255 6.097-.1058 2.2812-.3711 4.6966-.9435 6.745-.4078 1.4594-1.0006 2.8399-1.889 3.8276.0828.0262.1682.0506.2554.0724.7776.1938 1.5107.1425 2.0453-.435.2032-.2195.5079-.3122.798-.2427.29.0695.5205.2904.6037.5786l-.7956.2326c.7956-.2326.7955-.2329.7956-.2326l.0009.0033.002.0069.0071.025c.006.0215.0146.0525.0256.0926.0218.08.0529.1962.0906.344.0755.2956.1781.7186.2879 1.2339.2191 1.0281.4695 2.4352.5891 3.9365.1083 1.3594.1126 2.8323-.1292 4.1851.706-.6716 1.3983-1.405 1.9531-2.1389.6232-.8245 1.0147-1.5746 1.12-2.1887.0685-.4.4132-.6922.8164-.6922.4506.1342.7739.5363.7892.5801.0048.0158.0115.0396.0136.0478.0033.013.0057.0235.0063.0262l.0042.0197.0074.0363.0247.1232c.0215.1068.0533.2638.0951.4651.0835.4028.2069.9831.3669 1.6916.3202 1.418.7863 3.3454 1.3719 5.3876.5865 2.0452 1.2884 4.1895 2.0779 6.0472.6189 1.4562 1.2683 2.6786 1.923 3.5392.6547-.8606 1.304-2.083 1.9228-3.5392.7894-1.8576 1.4911-4.002 2.0771-6.047.5852-2.0421 1.0505-3.9695 1.3697-5.3872.1595-.7084.2822-1.2885.365-1.6908.0413-.2011.0727-.3577.0936-.4636l.0235-.12.0058-.03.0017-.0089c.0754-.3958.4213-.6811.8217-.6772.4004.0038.7407.2954.8085.6926.1051.6151.4964 1.3656 1.1194 2.1901.5549.7344 1.2477 1.468 1.9541 2.1396-.2423-1.3535-.2381-2.8274-.1297-4.1877.1196-1.5013.3701-2.9084.5891-3.9365.1098-.5153.2124-.9383.2879-1.2339.0377-.1478.0688-.264.0906-.344.011-.0401.0196-.0711.0256-.0926l.0071-.025.002-.0069.0006-.0021c.0001-.0003.0003-.0012.7959.2314l-.7956-.2326c.0832-.2882.3137-.5091.6038-.5786.29-.0695.5947.0232.798.2427.5346.5775 1.2673.6288 2.0444.435.0873-.0218.1727-.0462.2555-.0724-.8879-.9878-1.4803-2.3683-1.888-3.8277-.5721-2.0483-.8375-4.4636-.9436-6.7448-.1065-2.2886-.0541-4.4803.0244-6.0969.0393-.8092.0853-1.4766.1215-1.9427.0182-.2331.0339-.416.0451-.5413.0036-.04.0067-.0742.0093-.1022.0015-.0158.0028-.0297.0039-.0416l.0008-.0081m4.1687 19.5112c.4487.701.4484.7012.4481.7013l-.0019.0013-.0036.0023-.0102.0065-.0323.0201c-.0268.0165-.064.0389-.1106.0658-.093.0537-.2245.1259-.3865.2056-.3213.1578-.7773.3515-1.3021.4824-.7148.1783-1.652.2575-2.5376-.1203.0651-.2853.1242-.5255.1715-.7105.0353-.1385.064-.2457.0836-.3175.0098-.0359.0173-.0629.0223-.0805l.0054-.0192.0012-.0042m.5759 11.9071c-.6576-.5279-1.0966-1.3828-1.3442-2.5088-.2703-1.2295-.287-2.6749-.1743-4.0884.112-1.4059.348-2.7369.5575-3.7202.0348-.1629.0687-.3159.1011-.4578m-.1487 12.0989c-.0017-.0012-.0033-.0025-.005-.0037-.1736-.1285-.4209-.3146-.7186-.5479-.5946-.4658-1.3955-1.1231-2.2167-1.8869-.8186-.7613-1.673-1.6429-2.3645-2.558-.1109-.1468-.2192-.2965-.3235-.4485-.3233 1.4304-.7896 3.3547-1.3745 5.396-.5958 2.079-1.3191 4.2954-2.1457 6.2407-.8161 1.9204-1.7723 3.6738-2.8706 4.7421-.3211.3124-.8303.3124-1.1514 0-1.0983-1.0683-2.0545-2.8217-2.8707-4.7421-.8267-1.9452-1.5503-4.1616-2.1465-6.2405-.5863-2.0447-1.0538-3.9718-1.3781-5.4028-.1054.1538-.2148.3051-.3269.4534-.6915.9148-1.5458 1.7965-2.3642 2.558-.8211.764-1.6219 1.4217-2.2163 1.8878-.2977.2334-.5448.4197-.7185.5483-.0003.0002-.0006.0005-.0009.0007-.0954.0756-.1948.1477-.2982.2163-.378.2506-.8859.1495-1.1406-.2272m.2087-1.1516.0025-.0018.0114-.0081.0478-.0344c.0373-.027.0908-.0659.1584-.1158.656-.5281 1.0941-1.3821 1.3413-2.5065.2704-1.2295.287-2.6749.1743-4.0884-.112-1.4059-.348-2.7369-.5575-3.7202-.0348-.1629-.0687-.3159-.1011-.4578-.8858.3779-1.8232.2986-2.5382.1204-.525-.1309-.9811-.3247-1.3025-.4825-.1622-.0796-.2937-.1519-.3867-.2056-.0466-.0269-.0838-.0492-.1106-.0657l-.0324-.0201-.0102-.0065-.0035-.0023-.0014-.0009c-.0003-.0001-.0011-.0007.4474-.7018l-.4485.7011c-.2433-.1577-.3873-.4317-.3797-.7229.0076-.2912.1655-.5573.4167-.702.9549-.5501 1.7134-1.8472 2.2483-3.7613.5233-1.8729.7801-4.1451.8834-6.3712.1029-2.2186.0519-4.3538-.0253-5.9374-.0386-.7908-.0836-1.4418-.1189-1.894-.0176-.2261-.0328-.4024-.0435-.5215-.0054-.0595-.0096-.1047-.0125-.1348l-.0032-.0334-.0008-.008-.0002-.0017.8243-.0842h-.8285c0-3.6732 1.5004-7.1899 4.1613-9.7782m22.6108 42.7134c.0941.0743.192.1453.2939.2129.3781.2507.8861.1494 1.1408-.2274.2546-.3768.1616-.8895-.2089-1.1514m0 0-.0029-.0021-.0114-.0081-.0477-.0343c-.0368-.0265-.0891-.0646-.1552-.1133m.561-31.5279-.0002.0021-.0008.0079-.0032.0335c-.0017.017-.0037.0388-.0061.0653-.0019.0204-.004.0436-.0064.0695-.0106.1191-.0258.2954-.0434.5215-.0351.4522-.08 1.1032-.1184 1.8941-.0769 1.5835-.1275 3.7188-.0243 5.9374.1036 2.2261.3605 4.4984.8836 6.3714.5347 1.9142 1.2928 3.2114 2.2468 3.7614.251.1447.4088.4108.4164.7019.0075.291-.1369.5653-.3801.723l-.4481-.7013" clip-rule="evenodd"/>
  <path fill="#915E3A" d="M39.4357 87.7973H26.097v34.6087h8.8963l1.0166-22.7174c0-.5994.2448-1.1743.6805-1.5982.4358-.4238 1.0268-.6619 1.643-.6619.6163 0 1.2073.2381 1.643.6619.4358.4239.6806.9988.6806 1.5982l1.0165 22.7174h8.8963V87.7973H39.4357Z"/>
  <path fill="#45413C" fill-rule="evenodd" d="M25.2686 87.7973c0-.4605.3709-.8339.8285-.8339h24.4728c.4575 0 .8285.3734.8285.8339v34.6087c0 .461-.371.834-.8285.834h-8.8963c-.4431 0-.8077-.351-.8276-.796l-1.0166-22.7179c-.0006-.0125-.0008-.025-.0008-.0375 0-.3689-.1504-.7287-.4278-.9985-.2784-.2708-.6618-.4277-1.0673-.4277-.4055 0-.7889.1569-1.0673.4277-.2774.2698-.4278.6296-.4278.9985 0 .0125-.0003.025-.0008.0375L35.821 122.444c-.0199.445-.3846.796-.8276.796h-8.8963c-.4576 0-.8285-.373-.8285-.834V87.7973Zm1.657.8339v32.9408h7.2758l.9801-21.9036c.0055-.8226.344-1.6044.9333-2.1776.5931-.5769 1.3917-.8962 2.2187-.8962.827 0 1.6256.3193 2.2187.8962.5893.5732.9278 1.355.9333 2.1776l.9801 21.9036h7.2758V88.6312H26.9256Z" clip-rule="evenodd"/>
  <path fill="#00B8F0" d="M60.5641 80.2243c-.8859 0-1.7354-.3423-2.3618-.9516-.6264-.6093-.9783-1.4357-.9783-2.2974v-2.1598c0-4.8772-1.9918-9.5545-5.5372-13.0032-3.5453-3.4487-8.3539-5.3861-13.3678-5.3861-5.0139 0-9.8225 1.9374-13.3679 5.3861-3.5453 3.4487-5.5371 8.126-5.5371 13.0032V91.042h5.4211l-1.9111 21.472c-.0232.25.0074.501.09.739.0825.238.2152.456.3894.641.1743.186.3863.333.6226.434.2363.101.4916.153.7496.152h27.0955c.257 0 .5111-.052.7463-.153.2352-.1.4464-.248.6201-.432.1737-.184.3061-.401.3889-.638.0827-.237.114-.487.0919-.736l-2.8492-32.0269c.5136 2.7196 1.7568 5.2589 3.6036 7.3609 1.8468 2.102 4.2317 3.6922 6.9133 4.6095.281.1055.5841.1429.8832.1089.2991-.0339.5852-.1383.8336-.3039.2483-.1657.4515-.3877.5919-.6468.1404-.2592.2138-.5477.2138-.8406V80.2243h-3.3444Z"/>
  <path fill="#4ACFFF" d="M38.3233 63.9936c3.9313.0013 7.784 1.0705 11.1242 3.0871 3.3401 2.0166 6.0349 4.9005 7.7808 8.3267v-.5975c0-4.8772-1.9918-9.5545-5.5371-13.0032-3.5454-3.4486-8.354-5.3861-13.3679-5.3861-5.0139 0-9.8225 1.9375-13.3678 5.3861-3.5454 3.4487-5.5372 8.126-5.5372 13.0032l.2556.0833c1.7991-3.2919 4.4853-6.0456 7.7707-7.9657 3.2853-1.9201 7.0459-2.9343 10.8787-2.9339Z"/>
  <path fill="#009FD9" d="M36.3237 84.725c.1827.3645.4671.6717.8206.8866.3536.215.7621.3289 1.1791.3289.4169 0 .8254-.1139 1.179-.3289.3536-.2149.6379-.5221.8207-.8866l.9991-1.9974c3.6063-7.0781 6.7041-14.3908 9.271-21.8855-3.4171-2.8502-7.7699-4.417-12.2713-4.417s-8.8542 1.5668-12.2712 4.417c2.5675 7.4945 5.6652 14.8071 9.2709 21.8855l1.0021 1.9974Z"/>
  <path fill="#45413C" fill-rule="evenodd" d="M24.3754 61.2127c3.7027-3.6017 8.7189-5.6204 13.9436-5.6204 5.2246 0 10.2408 2.0187 13.9435 5.6204 3.7037 3.6027 5.7899 8.4951 5.7899 13.6028v2.1599c0 .6311.2575 1.2424.7256 1.6977.469.4562 1.111.7174 1.7861.7174h3.3444c.4576 0 .8285.3733.8285.8338v10.5578c-.0001.4335-.1088.8593-.315 1.2398-.206.3804-.5026.7033-.8616.9428-.3589.2393-.7703.3888-1.1983.4374-.4237.0481-.8534-.0036-1.2534-.1517-2.8115-.9638-5.3152-2.6332-7.2567-4.8429-.6125-.6972-1.1622-1.4404-1.6447-2.2211l2.3362 26.2596c.0327.369-.0137.739-.1357 1.088-.122.349-.3165.667-.5694.935-.2528.269-.5586.481-.8969.626-.3382.144-.7026.219-1.0703.219H24.7756c-.3685 0-.7338-.074-1.0729-.218-.3398-.145-.6469-.358-.9006-.628-.2538-.269-.4486-.589-.5702-.94-.1215-.35-.167-.721-.1329-1.09 0-.001.0001-.001.0001-.002l1.83-20.56H19.414c-.4576 0-.8285-.3734-.8285-.8339V74.8155c0-5.1077 2.0862-10.0001 5.7899-13.6028Zm13.9436-3.9526c-4.8032 0-9.4041 1.8563-12.7921 5.1519-3.3871 3.2946-5.2844 7.7569-5.2844 12.4035v15.3927h4.5926c.2326 0 .4545.0984.6114.2711.157.1728.2345.404.2138.6372l-1.9111 21.4715-.0003.003c-.0121.131.0037.262.0472.387.0434.125.1139.242.2086.343.0948.101.2119.183.3446.239.1329.057.2774.086.4243.086h27.0973c.0001 0 0 0 0 0 .1462 0 .2902-.03.4224-.086.1321-.057.2487-.138.3432-.239.0944-.1.1648-.216.2084-.341.0435-.124.0597-.255.0482-.385l-2.8492-32.0265c-.0394-.4428.2732-.8388.7107-.9002.4374-.0615.8459.2334.9283.6701.4855 2.5702 1.6608 4.9729 3.4104 6.9642 1.7497 1.9916 4.0119 3.501 6.5593 4.3724.0077.0027.0154.0054.0231.0083.1583.0595.3304.0809.5005.0615.1702-.0193.3311-.0785.4689-.1704.1377-.0919.2475-.213.3222-.3509.0746-.1377.1127-.289.1127-.4414 0 0 0 .0001 0 0v-9.7239h-2.5159c-1.0967 0-2.1538-.4234-2.9376-1.1858-.7847-.7633-1.231-1.8048-1.231-2.897v-2.1599c0-4.6466-1.8974-9.1089-5.2844-12.4035-3.388-3.2956-7.989-5.1519-12.7921-5.1519Z" clip-rule="evenodd"/>
  <path fill="#45413C" fill-rule="evenodd" d="M50.5553 70.7369c.4576 0 .8285.3733.8285.8339v5.4118c-.004 1.1264.0964 2.251.2999 3.3601.0831.4529-.2143.8879-.6642.9715-.45.0837-.8821-.2157-.9652-.6686-.2221-1.2103-.3317-2.4378-.3274-3.6674v-5.4074c0-.4606.3709-.8339.8284-.8339Z" clip-rule="evenodd"/>
  <path fill="#915E3A" d="M24.6986 120.7c-.1839.271-.2889.586-.3038.911-.0149.325.0607.647.2189.934.1582.286.3931.525.6798.692.2867.168.6146.256.9488.257h7.5951c.3187 0 .6322-.079.91-.231.2779-.152.5108-.371.6762-.636.1655-.265.2578-.567.2682-.877.0103-.31-.0617-.617-.209-.892-2.0259-3.775-8.4737-3.566-10.7842-.158Z"/>
  <path fill="#45413C" fill-rule="evenodd" d="M30.195 117.252c2.3504-.007 4.8134.968 6.0167 3.209.2165.404.3234.858.3081 1.317-.0153.459-.1521.904-.3946 1.292-.2425.389-.5817.706-.9824.925-.4004.219-.8501.333-1.306.333m-8.4537-3.159c-.0984.146-.1529.311-.1607.48-.0078.169.0314.338.1154.49.0842.153.2113.284.3709.377.1597.093.3444.143.5345.144h7.5942c.1815 0 .3595-.045.5147-.13.1551-.085.2816-.205.37-.347.0883-.141.1363-.3.1417-.461.0053-.161-.0319-.322-.1101-.468-.8227-1.532-2.5964-2.34-4.5538-2.335-1.9611.006-3.8556.833-4.8168 2.25Z" clip-rule="evenodd"/>
  <path fill="#915E3A" d="M51.9466 120.7c.1841.272.2891.587.3038.912.0147.325-.0614.649-.2203.935-.159.287-.3947.526-.6822.693-.2876.166-.6161.254-.9509.254h-7.5878c-.3187 0-.6322-.079-.91-.231-.2779-.152-.5108-.371-.6762-.636-.1655-.265-.2578-.567-.2682-.877-.0103-.31.0617-.617.209-.892 2.0259-3.775 8.4737-3.566 10.7828-.158Z"/>
  <path fill="#45413C" fill-rule="evenodd" d="M41.8929 121.254c.8227-1.533 2.5964-2.34 4.5537-2.335l-4.5537 2.335Zm4.5537-2.335c1.9609.006 3.855.833 4.8154 2.25l-4.8154-2.25Zm4.8154 2.25c.0985.146.1531.312.1608.481.0076.169-.0318.338-.1162.491-.0845.152-.2121.283-.3722.376-.1604.093-.3458.143-.5364.143h-7.5888c-.1815 0-.3595-.045-.5147-.13-.1551-.085-.2816-.205-.37-.347-.0883-.141-.1363-.3-.1417-.461-.0053-.161.032-.322.1101-.468m4.5585-4.002c2.3467.007 4.8309.988 6.1796 2.978.2697.398.4253.863.447 1.344.0218.482-.0911.959-.3245 1.379-.2333.421-.5772.769-.9921 1.009-.4146.241-.8861.366-1.3648.366m-7.5864 0c-.4559 0-.906-.114-1.3064-.333-.4007-.219-.7399-.536-.9824-.925-.2425-.388-.3793-.833-.3946-1.292-.0153-.459.0914-.912.3079-1.316 1.2033-2.242 3.6665-3.217 6.0167-3.21" clip-rule="evenodd"/>
  <path fill="#FFCEBF" d="M19.4169 95.3689c0 .8617.3519 1.6881.9783 2.2974.6264.6093 1.4759.9516 2.3618.9516.8858 0 1.7354-.3423 2.3618-.9516.6264-.6093.9783-1.4357.9783-2.2974v-4.3268h-6.6802v4.3268Z"/>
  <path fill="#45413C" fill-rule="evenodd" d="M18.5884 91.042c0-.4605.3709-.8339.8285-.8339h6.6802c.4575 0 .8284.3734.8284.8339v4.3268c0 1.0923-.4463 2.1337-1.231 2.8971-.7838.7623-1.8409 1.1858-2.9375 1.1858s-2.1538-.4235-2.9376-1.1858c-.7847-.7634-1.231-1.8048-1.231-2.8971V91.042Zm1.6569.8339v3.4929c0 .6312.2575 1.2425.7256 1.6978.469.4562 1.111.7173 1.7861.7173s1.317-.2611 1.786-.7173c.4681-.4553.7256-1.0666.7256-1.6978v-3.4929h-5.0233Z" clip-rule="evenodd"/>
  <path fill="#FFCEBF" d="M63.9012 80.2244h4.4555c.8579.0389 1.6675.3978 2.2605 1.0022s.9239 1.4078.9239 2.2432c0 .8355-.3309 1.6388-.9239 2.2432-.593.6044-1.4026.9633-2.2605 1.0023h-4.4555v-6.4909Z"/>
  <path fill="#45413C" fill-rule="evenodd" d="M63.0728 80.2244c0-.4606.3709-.8339.8284-.8339h4.4554c.0125 0 .0249.0003.0374.0008 1.0622.0482 2.0702.4927 2.8126 1.2494.7433.7575 1.1629 1.7702 1.1629 2.8291s-.4196 2.0717-1.1629 2.8292c-.7424.7567-1.7504 1.2011-2.8126 1.2493-.0125.0006-.0249.0009-.0374.0009h-4.4554c-.4575 0-.8284-.3734-.8284-.8339v-6.4909Zm1.6569.8339v4.8231h3.607c.6471-.0337 1.2514-.3063 1.691-.7543.4427-.4513.6849-1.0452.6849-1.6573 0-.612-.2422-1.206-.6849-1.6572-.4396-.4481-1.0439-.7206-1.691-.7543h-3.607Z" clip-rule="evenodd"/>
  <path fill="#009FD9" d="M26.0913 71.5708v19.4713h-1.2518"/>
  <path fill="#45413C" fill-rule="evenodd" d="M26.0913 70.7369c.4575 0 .8285.3733.8285.8339v19.4713c0 .4605-.371.8339-.8285.8339h-1.2518c-.4576 0-.8285-.3734-.8285-.8339 0-.4606.3709-.8339.8285-.8339h.4233V71.5708c0-.4606.3709-.8339.8285-.8339Z" clip-rule="evenodd"/>
  <path fill="#FFCEBF" d="M49.4589 40.2011V38.037c-.0185-.3647-.0563-.7282-.1133-1.0891-1.4963-.0214-2.9417-.5322-4.1033-1.4501-1.1615-.9179-1.9715-2.1895-2.2995-3.6098-1.2381 1.1688-2.8956 1.8225-4.6209 1.8225-1.7254 0-3.3829-.6537-4.621-1.8225-.3272 1.4147-1.1328 2.6818-2.2877 3.5986-1.155.9168-2.5927 1.4303-4.0832 1.4585-.0581.3617-.0964.7262-.1147 1.0919v2.1641c-3.1731 0-2.9596 5.4089.5562 5.4089h.0102c.6963 2.1941 2.097 4.1135 3.9965 5.4769 1.8996 1.3633 4.1982 2.0989 6.5589 2.0989 2.3607 0 4.6593-.7356 6.5589-2.0989 1.8996-1.3634 3.3002-3.2828 3.9966-5.4769h.0087c3.5172 0 3.7307-5.4089.5576-5.4089Z"/>
  <path fill="#45413C" fill-rule="evenodd" d="M43.1833 31.0899c.2835.0866.4994.3189.5665.6092.2844 1.2315.9879 2.3397 2.0042 3.1427 1.0167.8035 2.2859 1.2534 3.6034 1.2723.4029.0057.7433.3024.8065.703.0615.3901.1024.783.1224 1.1773.0007.0142.0011.0284.0011.0426v1.4337c.6665.1749 1.204.561 1.5846 1.0808.5091.6953.7029 1.5779.6433 2.4137-.1082 1.5189-1.1053 3.154-3.0191 3.4361-.8003 2.1439-2.2331 4.0108-4.1192 5.3645-2.0418 1.4654-4.509 2.2539-7.0399 2.2539s-4.9981-.7885-7.0399-2.2539c-1.886-1.3537-3.3188-3.2205-4.1191-5.3643-1.9143-.2816-2.9113-1.9174-3.0194-3.4364-.0595-.8358.1344-1.7183.6435-2.4136.3806-.5198.9181-.9059 1.5846-1.0808V38.037c0-.014.0004-.028.0011-.0419.0198-.3963.0613-.7913.1243-1.1832.064-.3981.4017-.693.8023-.7006 1.3123-.0248 2.5747-.4771 3.5856-1.2796 1.0105-.802 1.7102-1.9063 1.9939-3.1329.0672-.2903.2831-.5224.5665-.6089.2834-.0865.5911-.0141.8071.1898 1.0818 1.0212 2.5356 1.5968 4.0543 1.5968 1.5186 0 2.9724-.5756 4.0542-1.5968.216-.204.5238-.2763.8072-.1898Zm-9.067 2.1875c-.4745 1.1127-1.2254 2.0981-2.1901 2.8639-1.1108.8817-2.4511 1.4298-3.8595 1.5898-.0096.109-.0172.2181-.0229.3273v2.1427c0 .4605-.371.8339-.8285.8339-.5303 0-.8643.2124-1.0792.5059-.2335.3189-.3614.7886-.3247 1.3051.0737 1.0355.7466 1.9301 1.9601 1.9301h.0102c.3604 0 .6795.2345.7891.5801.6408 2.019 1.9314 3.7906 3.6884 5.0517 1.7574 1.2613 3.8875 1.944 6.0779 1.944 2.1904 0 4.3205-.6827 6.0779-1.944 1.757-1.2611 3.0476-3.0327 3.6884-5.0517.1097-.3456.4287-.5801.7892-.5801h.0087c1.2145 0 1.8875-.895 1.9613-1.9303.0368-.5164-.0911-.986-.3245-1.3049-.2149-.2935-.5488-.5059-1.0792-.5059-.4575 0-.8285-.3734-.8285-.8339v-2.1424c-.0057-.1074-.0132-.2147-.0225-.3219-1.4138-.1549-2.7606-.7008-3.8772-1.5832-.9714-.7676-1.7271-1.7575-2.2036-2.876-1.2332.8212-2.6977 1.2667-4.2052 1.2667-1.5077 0-2.9723-.4456-4.2056-1.2669Z" clip-rule="evenodd"/>
  <path fill="#45413C" d="M34.7204 39.1191c-.2753-.0003-.5445.0789-.7735.2275-.229.1486-.4075.3599-.513.6073-.1055.2473-.1332.5195-.0795.7821.0536.2627.1861.5039.3808.6933.1946.1893.4427.3183.7127.3704.27.0522.5498.0253.8041-.0773.2543-.1026.4715-.2763.6243-.4991.1527-.2227.2341-.4846.2338-.7523-.0003-.3584-.1469-.7021-.4074-.9555-.2606-.2535-.6139-.396-.9823-.3964ZM41.948 39.1191c-.2752-.0003-.5444.0789-.7734.2275-.229.1486-.4076.3599-.5131.6073-.1054.2473-.1331.5195-.0795.7821.0537.2627.1862.5039.3808.6933.1947.1893.4427.3183.7127.3704.27.0522.5499.0253.8042-.0773.2542-.1026.4715-.2763.6243-.4991.1527-.2227.2341-.4846.2338-.7523-.0004-.3584-.1469-.7021-.4075-.9555-.2605-.2535-.6138-.396-.9823-.3964Z"/>
  <path fill="#FFB59E" d="M32.7773 43.4459c0 .214-.0653.4232-.1875.6011-.1222.178-.2959.3166-.4992.3985-.2033.0819-.4269.1034-.6427.0616-.2158-.0417-.414-.1448-.5696-.2961-.1556-.1513-.2615-.3442-.3044-.554-.043-.2099-.0209-.4275.0633-.6252.0842-.1978.2267-.3667.4097-.4856.1829-.1189.398-.1824.618-.1824.295 0 .578.114.7866.3169.2086.203.3258.4782.3258.7652ZM46.1188 43.4459c0 .214-.0652.4232-.1874.6011-.1223.178-.296.3166-.4993.3985-.2032.0819-.4269.1034-.6427.0616-.2158-.0417-.414-.1448-.5695-.2961-.1556-.1513-.2616-.3442-.3045-.554-.0429-.2099-.0209-.4275.0633-.6252.0842-.1978.2268-.3667.4097-.4856.183-.1189.398-.1824.618-.1824.2951 0 .578.114.7866.3169.2086.203.3258.4782.3258.7652Z"/>
  <path fill="#E0E0E0" d="M48.332 55.3457c0 5.9739-10.0087 25.9608-10.0087 25.9608S28.3146 61.3196 28.3146 55.3457 32.1819 45.61 38.3233 45.61c6.1415 0 10.0087 3.7604 10.0087 9.7357Z"/>
  <path fill="#45413C" fill-rule="evenodd" d="M31.5917 48.8372c-1.5464 1.5042-2.4486 3.7074-2.4486 6.5084 0 1.335.5768 3.5807 1.5178 6.3025.9282 2.6846 2.1697 5.7206 3.4168 8.5832 1.2461 2.8604 2.493 5.5363 3.4286 7.4979.3106.6511.5867 1.2231.817 1.6968.2303-.4737.5065-1.0457.817-1.6968.9357-1.9616 2.1825-4.6375 3.4286-7.4979 1.2471-2.8626 2.4886-5.8986 3.4168-8.5832.9411-2.7218 1.5178-4.9675 1.5178-6.3025 0-2.8017-.9022-5.0049-2.4485-6.5089-1.5494-1.507-3.8291-2.3928-6.7317-2.3928-2.9025 0-5.1822.8861-6.7316 2.3933Zm6.7316 32.4692c-.7398.3753-.7399.3752-.74.375l-.0292-.0586-.0845-.1699c-.0738-.1489-.1819-.3677-.3193-.6479-.2748-.5605-.6671-1.3673-1.1377-2.354-.941-1.9726-2.1963-4.6668-3.4524-7.5499-1.255-2.8809-2.5157-5.9616-3.4642-8.7048-.9355-2.7059-1.6099-5.1987-1.6099-6.8507 0-3.1729 1.0315-5.8375 2.9541-7.7077 1.9195-1.8671 4.6442-2.8618 7.8831-2.8618s5.9635.9943 7.8831 2.8613c1.9227 1.87 2.9541 4.5347 2.9541 7.7082 0 1.652-.6743 4.1448-1.6099 6.8507-.9485 2.7432-2.2091 5.8239-3.4642 8.7048-1.256 2.8831-2.5114 5.5773-3.4524 7.5499-.4706.9867-.8629 1.7935-1.1377 2.354-.1374.2802-.2455.499-.3193.6479l-.0844.1699-.0289.0579c-.0001.0002-.0006.001-.7404-.3743Zm0 0 .7398.3753c-.1408.2812-.4269.4586-.7398.4586-.3128 0-.5991-.1777-.74-.4589l.74-.375Z" clip-rule="evenodd"/>
  <path fill="#E0E0E0" d="M44.9962 54.2636s-2.2247-3.7858-4.4481-4.3268c-1.1923-.2896-2.2248-.969-2.2248-2.1641 0-.2841.0576-.5655.1694-.8279.1118-.2625.2757-.501.4823-.7018.2066-.2009.4519-.3602.7218-.4688.2699-.1086.5592-.1644.8513-.1642 5.745 0 4.4481 8.6536 4.4481 8.6536Z"/>
  <path fill="#45413C" fill-rule="evenodd" d="M40.5476 46.4439c-.1871-.0002-.3718.0356-.5433.1046-.1714.069-.3253.1694-.4538.2942-.1283.1248-.2286.2714-.2964.4306s-.1023.3288-.1023.4994c0 .3216.1266.5707.3796.7916.2738.239.6927.4359 1.211.5618.7272.177 1.3964.6008 1.9646 1.0706.576.4763 1.1 1.0432 1.5371 1.5745.0141.0173.0283.0345.0423.0517-.0169-.5489-.0672-1.145-.1748-1.7358-.1838-1.0098-.5218-1.9297-1.0756-2.5844-.5258-.6215-1.2901-1.0588-2.4884-1.0588Zm3.7352 8.2436-.0035-.006-.0164-.0272c-.015-.0248-.038-.0624-.0684-.1113-.061-.0978-.1516-.2401-.2676-.4134-.2328-.3476-.564-.8144-.9591-1.2948-.3971-.4827-.8461-.9636-1.3126-1.3494-.4741-.392-.917-.6444-1.3014-.738-.674-.1637-1.3674-.4513-1.908-.9232-.5614-.49-.951-1.1782-.951-2.0515 0-.3978.0806-.7909.2364-1.1566s.3834-.6961.6683-.973c.2848-.2769.6214-.495.9898-.6432.3682-.1482.7619-.224 1.1588-.2238m4.4481 9.4875c.8192.1243.8193.124.8193.1237l.0005-.0031.001-.0068.0033-.023c.0026-.0194.0064-.0468.0108-.0817.0089-.0698.0209-.1697.0338-.2954.0257-.2513.0553-.6071.072-1.033.0332-.8465.0164-1.9946-.1955-3.1579-.21-1.1536-.625-2.397-1.4438-3.3649-.8468-1.001-2.0756-1.6453-3.7495-1.6454m3.7347 9.9114c0-.0001 0 .0001 0 0Zm.7134-.4239.8193.1237c-.0522.3488-.317.6274-.661.6948-.3439.0674-.6927-.0903-.8712-.3937l-.0005-.0009" clip-rule="evenodd"/>
  <path fill="#E0E0E0" d="M31.6504 54.2636s2.2248-3.7858 4.4481-4.3268c1.1923-.2896 2.2248-.969 2.2248-2.1641 0-.2841-.0575-.5655-.1694-.8279-.1118-.2625-.2757-.501-.4823-.7018-.2066-.2009-.4519-.3602-.7218-.4688-.2699-.1086-.5592-.1644-.8513-.1642-5.745 0-4.4481 8.6536-4.4481 8.6536Z"/>
  <path fill="#45413C" fill-rule="evenodd" d="M36.0985 44.7761c.3969-.0002.7906.0756 1.1588.2238.3684.1482.705.3663.9898.6432.2849.2769.5125.6073.6683.973.1558.3657.2364.7588.2364 1.1566 0 .8733-.3896 1.5615-.951 2.0515-.5406.4719-1.234.7595-1.908.9232-.3844.0936-.8273.346-1.3014.738-.4665.3858-.9155.8667-1.3126 1.3494-.3951.4804-.7263.9472-.9591 1.2948-.116.1733-.2066.3156-.2676.4134-.0304.0489-.0534.0865-.0684.1113l-.0164.0272-.0035.006c0 .0001 0-.0001 0 0 .0001-.0001-.0004.0006-.7134-.4239-.7131-.4246-.713-.4247-.7129-.4249l.0008-.0014.0019-.0032.0061-.0103.0218-.0363c.0187-.0309.0457-.0751.0804-.1308.0694-.1114.1699-.2691.2972-.4592.2457-.3669.5944-.8595 1.0145-1.3746.014-.0172.0281-.0344.0423-.0517.4371-.5313.9611-1.0982 1.5371-1.5745.5682-.4698 1.2371-.8935 1.9642-1.0705.5183-.1259.9376-.3229 1.2114-.5619.253-.2209.3796-.47.3796-.7916 0-.1706-.0345-.3402-.1023-.4994s-.1681-.3058-.2964-.4306c-.1285-.1248-.2824-.2252-.4538-.2942-.1715-.069-.3562-.1048-.5433-.1046-1.1983 0-1.9626.4373-2.4884 1.0588-.5538.6547-.8918 1.5746-1.0756 2.5844-.1076.5908-.1579 1.1869-.1748 1.7358m3.7383-7.0468c-1.6739.0001-2.9027.6444-3.7495 1.6454-.8188.9679-1.2338 2.2113-1.4438 3.3649-.2119 1.1633-.2287 2.3114-.1955 3.1579.0167.4259.0463.7817.072 1.033.0129.1257.0249.2256.0338.2954.0044.0349.0082.0623.0108.0817l.0033.023.001.0068.0003.0023c.0001.0003.0002.0014.8195-.1229l-.8193.1243c.0523.3488.317.6268.661.6942.3439.0674.6932-.0911.8717-.3946" clip-rule="evenodd"/>
  <path fill="#915E3A" d="M73.8649 122.286c-.3269.038-.6584.005-.9706-.097-.3122-.101-.5973-.269-.8348-.491-.2374-.222-.4212-.493-.5382-.792-.117-.299-.1642-.62-.1382-.939l1.6584-20.3419-5.4197-1.8972c-.4977-.1747-.9151-.5163-1.1773-.9634-.2621-.4471-.3519-.9705-.2531-1.4761l3.7075-18.9896-5.7363-.9013c-.3119-.0486-.6096-.1614-.8731-.3307-.2636-.1694-.487-.3915-.6554-.6515-.1683-.26-.2778-.552-.3209-.8564-.0432-.3044-.0192-.6142.0705-.9089l2.3947-7.9021c.1668-.5501.5514-1.0133 1.0692-1.2877.5179-.2743 1.1266-.3373 1.6922-.175.5656.1622 1.0418.5363 1.3238 1.0401.282.5037.3467 1.0958.18 1.6459l-1.6803 5.5473 5.4996.8631c.2938.0459.5752.1487.8274.3024.2522.1536.4702.355.6408.5922.1707.2371.2906.5052.3527.7884.0622.2831.0652.5754.0089.8597L70.9169 94.284l5.228 1.8364c.4583.1598.8501.4616 1.115.8589.265.3973.3886.8683.3517 1.3405l-1.7934 21.9942c-.042.497-.2593.965-.6152 1.325-.356.359-.8287.588-1.3381.647Z"/>
  <path fill="#45413C" fill-rule="evenodd" d="M67.3127 64.0871c-.3618-.1037-.7509-.0628-1.0792.1111-.3275.1734-.5622.4614-.6627.793l-2.3947 7.9021c-.0541.1778-.0687.3649-.0428.5477.0259.1829.0919.3599.1949.519.1031.1592.2413.2974.4071.4039.1658.1065.3546.1785.5541.2095l6.5886 1.0352-3.8737 19.8406c-.0593.3034-.0061.619.1537.8915.1602.2732.4193.4884.7365.5998 0 0-.0001 0 0 0l6.0252 2.1091-1.7109 20.9854c-.0156.191.0126.385.0835.566.0709.181.1832.348.3309.486.1479.138.3273.244.5262.309.199.065.4111.086.6205.062.3267-.038.6251-.185.8463-.408.2204-.223.3509-.508.3763-.805l.0001-.001 1.7931-21.9894c0-.0004.0001-.0008.0001-.0012.0217-.2825-.0519-.5666-.2138-.8094-.1624-.2436-.4064-.4338-.6983-.5356l-5.9082-2.0754 3.9142-20.0693.0005-.0024c.0338-.1709.032-.3466-.0054-.5169-.0373-.1705-.1099-.3334-.2146-.479-.1049-.1457-.2401-.2713-.3989-.368-.1589-.0968-.3375-.1624-.5254-.1917l-6.4434-1.0113 1.9586-6.4664c.1002-.3307.0621-.6872-.1093-.9934-.1721-.3073-.4677-.5438-.8291-.6475Zm6.5522 58.1989.095.828c-.4444.052-.8954.007-1.3208-.131-.4255-.139-.8163-.369-1.1433-.674-.3271-.306-.5824-.68-.7455-1.098-.1631-.417-.2293-.866-.193-1.313l1.606-19.697-4.8136-1.6854c-.6783-.2381-1.2546-.7063-1.6187-1.3272-.3645-.6217-.4908-1.353-.3526-2.0608.0001-.0001 0 0 0 0l3.5414-18.1387-4.8839-.7673c-.0002 0 .0001 0 0 0-.4243-.0662-.831-.2198-1.1923-.452-.3614-.2322-.67-.5382-.9036-.899-.2337-.3609-.3866-.7679-.447-1.1938-.0604-.4259-.0267-.8592.0984-1.2707 0-.0001 0 .0002 0 0l2.3945-7.9015c.2331-.7687.7676-1.4071 1.4759-1.7823.7074-.3747 1.5357-.4598 2.305-.2391.7699.2208 1.4266.7326 1.8185 1.4327.3926.7012.4839 1.5291.2507 2.2987l-1.4018 4.628 4.5556.715m3.4271 23.7751c.6244.2179 1.1636.6311 1.5309 1.1818.3678.5516.5414 1.209.4898 1.8706l-.0003.0029-1.7935 21.994-.0001.003c-.0587.696-.3629 1.347-.854 1.843-.4907.495-1.1377.806-1.8298.886l-.095-.828" clip-rule="evenodd"/>
  <path fill="#FFE500" d="M76.0795 57.6962c.1814 1.487-.0946 2.993-.793 4.3275-.6985 1.3344-1.7881 2.4375-3.131 3.1696-1.3429.7321-2.8789 1.0604-4.4136.9435-1.5348-.117-2.9994-.674-4.2087-1.6006-1.2094-.9267-2.109-2.1813-2.5853-3.6053-.4763-1.424-.5078-2.9534-.0905-4.3948.4172-1.4414 1.2646-2.7301 2.4347-3.7031 1.1702-.973 2.6108-1.5866 4.1395-1.7633 1.0151-.1173 2.0441-.039 3.0281.2306.984.2695 1.9038.7249 2.7069 1.3403.803.6153 1.4736 1.3785 1.9734 2.246.4998.8674.8191 1.8221.9395 2.8096Z"/>
  <path fill="#FFF48C" d="M60.9329 60.8858c.5026-1.5296 1.4919-2.8642 2.8251-3.8112 1.3332-.947 2.9413-1.4573 4.5922-1.4573 1.6508 0 3.2589.5103 4.5921 1.4573 1.3332.947 2.3225 2.2816 2.8251 3.8112.3731-1.1356.4653-2.3409.2692-3.5178-.1961-1.1768-.675-2.292-1.3979-3.2549-.7228-.9628-1.669-1.7461-2.7618-2.2861-1.0927-.5399-2.3011-.8214-3.5267-.8214-1.2257 0-2.4341.2815-3.5268.8214-1.0928.54-2.039 1.3233-2.7618 2.2861-.7229.9629-1.2018 2.0781-1.3979 3.2549-.1961 1.1769-.1039 2.3822.2692 3.5178Z"/>
  <path fill="#45413C" fill-rule="evenodd" d="M70.2422 52.1049c-.8823-.2417-1.8053-.312-2.7161-.2067-1.3719.1585-2.6614.7089-3.7063 1.5777-1.0446.8685-1.7971 2.0155-2.167 3.2935-.3699 1.2776-.3421 2.6328.0802 3.8954.4225 1.263 1.2219 2.3802 2.302 3.2078 1.0803.8279 2.392 1.3277 3.7694 1.4327 1.3775.1049 2.7546-.19 3.9565-.8453 1.2017-.6551 2.1721-1.6395 2.7926-2.825.6203-1.1851.8644-2.5201.7037-3.8372-.1067-.8749-.3897-1.722-.8339-2.4929-.4442-.771-1.0413-1.4512-1.7586-2.0008-.7173-.5496-1.5403-.9575-2.4225-1.1992Zm-2.9051-1.8637c1.1195-.1293 2.2544-.043 3.3401.2544 1.0859.2974 2.1024.8004 2.9912 1.4815.8889.6811 1.6329 1.5272 2.1883 2.4911.5554.964.9109 2.0263 1.0451 3.1264.2022 1.657-.1057 3.3339-.8824 4.8178-.7764 1.4834-1.9852 2.705-3.4693 3.5141-1.484.809-3.1788 1.1708-4.8708 1.0418-1.6921-.129-3.3097-.7432-4.648-1.7686-1.3386-1.0257-2.3385-2.4177-2.8686-4.0028-.5303-1.5853-.5654-3.289-.1007-4.8941.4645-1.6048 1.4067-3.0353 2.7025-4.1127 1.2955-1.0772 2.887-1.7541 4.5726-1.9489Z" clip-rule="evenodd"/>
  <path fill="#FFCEBF" d="M71.447 79.521c-.5806-.1235-1.1816-.1251-1.7628-.0045-.5812.1205-1.1292.3604-1.6075.7035-.4783.3432-.8757.7817-1.1658 1.2862-.29.5045-.466 1.0635-.5162 1.6395-.0474 1.0201.2846 2.0228.935 2.8243.6504.8016 1.5759 1.3485 2.607 1.5406l1.0557.2232c.7106.1513 1.4538.0257 2.0703-.3498.6166-.3755 1.0573-.971 1.2277-1.6589l.6521-2.6303c.0872-.3503.1017-.7141.0424-1.0699-.0593-.3558-.1911-.6965-.3877-1.0021s-.454-.5699-.757-.7773c-.3031-.2075-.6457-.3539-1.0078-.4307l-1.3854-.2938Z"/>
  <path fill="#45413C" fill-rule="evenodd" d="M71.6183 78.7051s-.0001 0 0 0l1.3849.2937c.4666.099.9097.288 1.3028.5571.3933.2692.7291.6134.9866 1.0137.2575.4003.4311.8481.5093 1.3174.0782.4692.0592.949-.0558 1.4107l-.6518 2.6292c-.2248.907-.8038 1.6839-1.6027 2.1705-.7979.486-1.7559.6469-2.6704.4523-.0001 0 0 0 0 0l-1.0455-.221c-1.2157-.229-2.3127-.8761-3.0877-1.8312-.7777-.9585-1.1779-2.1621-1.1209-3.3907.0005-.0113.0013-.0226.0023-.0339.0608-.6986.2742-1.3751.6244-1.9844.3502-.6091.8288-1.1363 1.402-1.5475.5732-.4112 1.2283-.6975 1.9212-.8413.6929-.1437 1.4092-.1418 2.1013.0054Zm-.3426 1.6317c-.469-.0997-.9547-.101-1.4243-.0036-.4695.0974-.9105.2908-1.2939.5659-.3832.275-.6996.6248-.9295 1.0247-.227.3949-.3651.8303-.4065 1.2778-.0332.8059.2304 1.6008.7498 2.2409.5238.6454 1.2738 1.0912 2.1162 1.2482l.0195.0038 1.0568.2235c.5067.1078 1.035.0175 1.47-.2475.4342-.2644.7366-.6785.8528-1.1472l.652-2.6304c.0596-.239.0696-.4877.0292-.73-.0404-.2425-.1304-.476-.2661-.6869-.1356-.2109-.3145-.3952-.5274-.541-.213-.1457-.4552-.2496-.7127-.3042 0-.0001 0 0 0 0l-1.3859-.294Z" clip-rule="evenodd"/>
  <path fill="#00B8F0" d="M25.7282 33.7107 36.5647 2.06842c.1226-.35939.3585-.67207.6742-.89367.3157-.221595.6951-.340857 1.0844-.340857s.7687.119262 1.0844.340857c.3157.2216.5516.53428.6742.89367L50.9184 33.7107H25.7282Z"/>
  <path fill="#4ACFFF" d="m40.6193 3.61895-.5316-1.55386c-.1226-.35939-.3585-.67206-.6742-.89366-.3157-.221602-.6951-.340864-1.0844-.340864s-.7687.119262-1.0844.340864c-.3157.2216-.5516.53427-.6742.89366L25.734 33.7074h4.5745L40.6193 3.61895Z"/>
  <path fill="#45413C" fill-rule="evenodd" d="M38.3233 1.6678c-.2219 0-.4355.06813-.6105.19094-.1745.12256-.3002.29193-.3646.48063L26.8901 32.8768h22.8664L39.2987 2.34018c-.0644-.18869-.1904-.35889-.3649-.48144-.175-.12281-.3886-.19094-.6105-.19094ZM36.765.490774C37.2214.170391 37.7666 0 38.3233 0s1.1019.170391 1.5583.490774c.4567.320605.8028.776506.9838 1.306496 0 .00007 0-.00007 0 0L51.7016 33.4389c.0873.2549.0468.5365-.1087.7559-.1554.2195-.4067.3498-.6745.3498H25.7282c-.2678 0-.5191-.1303-.6746-.3498-.1554-.2194-.1959-.501-.1086-.7559L35.7811 1.79748c.0001-.00006 0 .00006 0 0 .181-.53.5272-.986099.9839-1.306706Z" clip-rule="evenodd"/>
  <path fill="#00B8F0" d="M58.9739 32.2863c-.2568-.2438-.5711-.4227-.9154-.5212-.3442-.0985-.708-.1136-1.0596-.0438-6.1638 1.0615-12.4165 1.5563-18.6756 1.4776-6.259.0787-12.5118-.4161-18.6755-1.4776-.3519-.0693-.7158-.054-1.0602.0445-.3444.0984-.6589.2771-.9163.5205-.1393.1131-.2536.2525-.3357.4099-.0822.1574-.1305.3294-.1421.5055 0 2.3887 9.4598 4.3268 21.1298 4.3268 11.6701 0 21.1298-1.9381 21.1298-4.3268-.0114-.1763-.0598-.3485-.1422-.5059-.0824-.1575-.1971-.2968-.337-.4095Z"/>
  <path fill="#45413C" fill-rule="evenodd" d="M56.8497 30.9009c.4764-.0927.9687-.0715 1.4353.062.46.1316.8833.369 1.2337.6946.2154.1794.3943.3997.5251.6495.1363.2603.217.5464.236.8404.0012.0181.0018.0362.0018.0542 0 .5967-.2991 1.0884-.6737 1.4632-.3727.3729-.8786.6925-1.4561.9721-1.1589.561-2.7826 1.0438-4.7221 1.4411-3.8927.7972-9.2332 1.2843-15.1064 1.2843-5.8732 0-11.2136-.4871-15.1063-1.2843-1.9396-.3973-3.5633-.8801-4.7221-1.4411-.5776-.2796-1.0835-.5992-1.4562-.9721-.3746-.3748-.6736-.8665-.6736-1.4632 0-.0183.0006-.0366.0018-.0549.0192-.2933.0996-.5786.2352-.8384.1305-.25.309-.4706.524-.6505.3511-.3254.7748-.5627 1.2352-.6943.4666-.1333.9587-.1547 1.4351-.0627 6.1112 1.052 12.3107 1.5422 18.5166 1.4642h.0207c6.2056.078 12.405-.4122 18.516-1.4641Zm2.1242 1.3854-.5685.6066c-.1587-.1506-.3552-.2633-.5734-.3258-.2182-.0624-.4495-.072-.673-.0277l-.0204.0038c-6.21 1.0695-12.5095 1.5682-18.8153 1.4896-6.3058.0786-12.6053-.4201-18.8152-1.4896l-.0193-.0036c-.2241-.0441-.456-.0343-.6748.0283-.2188.0625-.4159.1753-.5754.3261-.0153.0145-.0311.0284-.0475.0416-.0523.0425-.0934.0933-.1221.1484-.0226.0432-.0374.0888-.0446.135.0077.0346.041.1214.1825.263.1902.1903.5145.4139 1.0062.6519.9795.4742 2.4501.9239 4.3342 1.3098 3.7547.7689 8.9792 1.2508 14.776 1.2508 5.7968 0 11.0213-.4819 14.776-1.2508 1.8841-.3859 3.3547-.8356 4.3343-1.3098.4916-.238.8159-.4616 1.0062-.6519.1418-.1419.1748-.2288.1825-.2633-.0071-.0459-.0219-.0912-.0444-.1342-.0286-.0547-.0695-.1051-.1217-.1471l.5177-.6511Z" clip-rule="evenodd"/>
</svg>
