
<svg xmlns="http://www.w3.org/2000/svg" fill="none" width="128" height="128">
  <path fill="#C7F0FF" d="M46.0556 25.5097c.0004-3.1348-.7269-6.23-2.1285-9.0585-1.4017-2.8286-3.4422-5.3187-5.9718-7.28785-2.5297-1.96913-5.4844-3.3673-8.6474-4.09198-3.163-.72467-6.4541-.75748-9.632-.096-3.1779.66147-6.1619 2.00045-8.7332 3.91874-2.57137 1.91829-4.6648 4.36719-6.1268 7.16719-1.462 2.8-2.2555 5.88-2.32229 9.0142-.06679 3.1342.59482 6.2431 1.9363 9.0987H44.1147c1.2816-2.7213 1.9434-5.6758 1.9409-8.6645Z"/>
  <path fill="#CCF7AD" d="M4.42993 34.1743c1.7278 3.6779 4.51831 6.7976 8.03747 8.9857 3.5191 2.1881 7.6176 3.3519 11.8049 3.3519s8.2859-1.1638 11.805-3.3519c3.5192-2.1881 6.3097-5.3078 8.0374-8.9857H4.42993Z"/>
  <path fill="#45413C" fill-rule="evenodd" d="M2.45056 34.1743c0-.1727.1391-.3127.31068-.3127H45.2387c.1716 0 .3107.14.3107.3127 0 .1727-.1391.3127-.3107.3127H2.76124c-.17158 0-.31068-.14-.31068-.3127ZM0 34.1743c0-.1727.139096-.3127.31068-.3127h1.36146c.17158 0 .31068.14.31068.3127 0 .1727-.1391.3127-.31068.3127H.31068C.139096 34.487 0 34.347 0 34.1743ZM46.0171 34.1743c0-.1727.1391-.3127.3107-.3127h1.3614c.1716 0 .3107.14.3107.3127 0 .1727-.1391.3127-.3107.3127h-1.3614c-.1716 0-.3107-.14-.3107-.3127Z" clip-rule="evenodd"/>
  <path fill="#E0E0E0" d="M10.5657 30.6423c1.4595-1.4073 2.5018-6.836 2.5018-6.836.2086 1.2078 2.5051 2.8146 2.5051 2.8146-1.5292-1.005-.4171-4.8252-.4171-4.8252.6257.67 1.668 0 1.668 0-1.8766-1.0723-1.2525-7.2382-1.2525-7.2382-.0138-1.2711-.5471-2.4857-1.4841-3.3798-.937-.8942-2.2021-1.39572-3.5203-1.39572-1.31834 0-2.58339.50152-3.52041 1.39572-.93702.8941-1.47033 2.1087-1.48408 3.3798 0 0 .62573 6.1659-1.25254 7.2382 0 0 1.04288.67 1.66806 0 0 0 1.11203 3.8202-.41715 4.8252 0 0 2.29378-1.6084 2.50508-2.8146-.00218 0 1.04015 5.4287 2.50014 6.836Z"/>
  <path fill="#45413C" fill-rule="evenodd" d="M6.83233 10.9507c.99607-.9505 2.33814-1.48146 3.73407-1.48146 1.396 0 2.7381.53096 3.7342 1.48146.9965.9509 1.5663 2.2455 1.5809 3.6033.0002.0117-.0004.0234-.0015.0351l-.3091-.0317-.3107.0034c0-.0056-.0001-.0112-.0002-.0167-.0173-1.1783-.5136-2.3061-1.387-3.1395-.8779-.8378-2.0659-1.31-3.3066-1.31-1.24057 0-2.4286.4722-3.30657 1.31-.87338.8334-1.36965 1.9611-1.38696 3.1394l.0001.001c.00118.0122.00287.0302.00499.0535.00423.0466.01014.1146.01697.2012.01364.1734.03096.4215.04579.7224.02962.6011.04949 1.416.0097 2.267-.03967.8482-.13916 1.7465-.35398 2.5085-.1525.541-.37397 1.0528-.70526 1.4199.02986.0093.06058.0179.09196.0257.29229.0722.56775.0529.76791-.1617.07629-.0817.19026-.1161.29865-.09.1084.026.19463.1085.22596.2162l-.29814.0879c.29814-.0879.29812-.088.29814-.0879l.00036.0012.00075.0026.00265.0093c.00226.008.00551.0196.00961.0344.0082.0298.01984.073.03401.128.02833.11.0668.2673.10799.4589.08219.3823.17614.9056.22102 1.464.04057.5047.04225 1.0517-.04803 1.5545.26543-.25.52586-.5231.73457-.7963.23417-.3065.38106-.5849.42089-.8123l.0288.0051c.04355-.081.13278-.2039.27716-.2635.09184 0 .17897.0409.238.1117.03623.0434.0596.0954.06856.1502l.00147.0079c.00179.0094.0046.024.00844.0436.00767.0391.01928.0971.03466.1718.03078.1494.07659.3649.1362.6282.11931.5269.29353 1.2432.51277 2.0022.21954.7601.48252 1.557.77844 2.2473.23222.5418.47592.9963.72162 1.316.2456-.3197.4892-.7742.7214-1.316.2959-.6903.5589-1.4872.7785-2.2473.2194-.759.3938-1.4754.5134-2.0024.0598-.2633.1058-.4789.1368-.6284.0155-.0747.0272-.133.0351-.1723l.0088-.0446.0021-.0111.0006-.0027.0001-.0006c.0284-.1482.158-.2549.308-.2535.1499.0014.2774.1104.3031.2591.0393.2275.1857.5058.4197.8124.2089.2737.47.5472.736.7975-.0906-.5034-.089-1.0511-.0484-1.5565.0449-.5584.1389-1.0817.221-1.464.0412-.1916.0797-.3489.108-.4589.0142-.055.0259-.0982.0341-.128.0041-.0148.0073-.0264.0096-.0344l.0026-.0093.0008-.0026.0002-.0008c0-.0001.0001-.0004.2983.0875l-.2982-.0879c.0313-.1076.1175-.1901.2259-.2162.1084-.0261.2223.0082.2986.0899.2005.2147.4761.234.7682.1618.0314-.0078.0622-.0164.0921-.0257-.3311-.3672-.5524-.879-.7049-1.4199-.2147-.762-.3143-1.6603-.354-2.5085-.0399-.851-.0202-1.6659.0093-2.2669.0148-.3009.032-.5491.0456-.7224.0068-.0867.0127-.1547.0169-.2013.0012-.0129.0023-.0242.0031-.0338.0008-.0077.0014-.0142.0019-.0197l.0001-.0009m1.5634 7.2515c.1672.2635.1671.2636.167.2637l-.0007.0005-.0013.0008-.0038.0024-.0122.0075c-.01.0061-.0239.0144-.0414.0244-.0349.02-.0842.0468-.1449.0764-.1205.0587-.2913.1306-.488.1793-.2678.0662-.6192.0957-.9513-.0452.0245-.1065.0467-.1962.0645-.2652.0133-.0514.024-.0913.0313-.1179.0037-.0134.0065-.0234.0084-.0299l.002-.0071.0005-.0016m.2163 4.4229c-.247-.196-.4116-.5135-.5044-.9318-.1012-.4563-.1074-.9931-.0652-1.5182.0419-.5223.1304-1.0169.209-1.3823.0129-.06.0255-.1165.0376-.1689m-.0526 4.4995c-.0012-.0008-.0024-.0017-.0036-.0026-.0652-.0477-.158-.1169-.2698-.2037-.2232-.1731-.524-.4174-.8323-.7014-.3074-.283-.6283-.6108-.888-.9511-.0422-.0552-.0833-.1115-.1229-.1688-.1212.5318-.2961 1.2474-.5154 2.0065-.2234.773-.4946 1.5971-.8047 2.3205-.3061.7141-.6648 1.3663-1.077 1.7637-.1201.1159-.3096.1159-.4298.0001-.41226-.3974-.77112-1.0497-1.07725-1.7638-.31008-.7234-.5813-1.5475-.80457-2.3205-.21929-.7592-.39396-1.4748-.51488-2.0068-.0396.0572-.08072.1134-.12282.1685-.25982.3402-.58055.6679-.8877.951-.30814.284-.60858.5285-.83157.7018-.11168.0867-.2044.156-.26952.2038-.00026.0002-.00052.0004-.00077.0006-.03566.0279-.07277.0546-.11139.08-.14214.0934-.33247.0547-.42742-.0869-.09493-.1417-.05934-.3338.07991-.4314m0 0 .00109-.0008.00429-.003.0179-.0128c.01394-.01.03387-.0244.05908-.0428.24591-.1961.40984-.513.50238-.9302.10121-.4563.10747-.9931.06526-1.5182-.04198-.5223-.13046-1.0169-.209-1.3823-.01291-.06-.02553-.1165-.03759-.1689-.33207.1409-.6834.1113-.95118.0452-.19665-.0486-.36756-.1206-.48804-.1793-.06077-.0295-.11007-.0564-.14494-.0764-.01747-.0099-.03141-.0183-.04146-.0244l-.01214-.0075-.00381-.0024-.00133-.0008-.00052-.0003c-.0001-.0001-.00042-.0003.16675-.2639l-.16717.2636c-.09183-.059-.14625-.1621-.1434-.2717.00284-.1097.06252-.2098.15729-.2639.35806-.2044.64213-.6859.8425-1.3967.19613-.6957.29237-1.5399.33106-2.3672.03856-.8245.01939-1.6181-.00962-2.2066-.01448-.2939-.03138-.5359-.04461-.7039-.00662-.0841-.01231-.1496-.01633-.1938-.00201-.0221-.0036-.0389-.00467-.0501l-.00122-.0124c-.0013-.0117-.00197-.0235-.00197-.0355h.31066l-.31064-.0034c.01469-1.3578.58448-2.6524 1.58099-3.6033m8.46187 15.8542c.0347.0272.0709.0531.1084.0778.1422.0935.3327.0547.4276-.0871.0948-.1417.0591-.3338-.0803-.4314m0 0-.0011-.0008-.0043-.003-.0179-.0128c-.0135-.0096-.0327-.0234-.0568-.041m.2102-11.7175-.0004.0037-.0012.0124c-.0011.0112-.0027.028-.0047.0501-.004.0443-.0097.1098-.0163.1938-.0132.1681-.03.41-.0444.7039-.0289.5886-.0479 1.3822-.0093 2.2067.0388.8273.1351 1.6715.3312 2.3672.2003.7109.4842 1.1924.8419 1.3968.0947.0541.1544.1542.1572.2638.0028.1096-.0518.2128-.1436.2718l-.167-.2637" clip-rule="evenodd"/>
  <path fill="#45413C" d="M4.03247 46.9948c0 .2666.73228.5222 2.03576.7107 1.30347.1885 3.07136.2944 4.91477.2944 1.8434 0 3.6113-.1059 4.9147-.2944 1.3035-.1885 2.0358-.4441 2.0358-.7107 0-.2665-.7323-.5222-2.0358-.7107-1.3034-.1885-3.0713-.2944-4.9147-.2944-1.84341 0-3.6113.1059-4.91477.2944-1.30348.1885-2.03576.4442-2.03576.7107Z" opacity=".15"/>
  <path fill="#915E3A" d="M13.6531 44.3142c.5145-.0048 1.0248.0911 1.4998.282V33.0547H5.97827v11.2595H7.8146c.53627-.0056 1.06762.0991 1.5586.3072l.32239-7.1442c0-.2228.0918-.4365.25521-.5941.1634-.1576.385-.2461.6161-.2461.2311 0 .4527.0885.6161.2461.1635.1576.2553.3713.2553.5941l.3812 6.837h1.8336Z"/>
  <path fill="#45413C" fill-rule="evenodd" d="M5.66748 33.0546c0-.1727.1391-.3127.31068-.3127h9.17454c.1716 0 .3107.14.3107.3127v11.5416c0 .1037-.0511.2007-.1364.2588-.0853.0582-.1937.07-.2894.0316-.4373-.1757-.9074-.2642-1.3818-.2597H11.8194c-.1649 0-.301-.1296-.3102-.2952l-.3812-6.837c-.0004-.0058-.0005-.0117-.0005-.0175 0-.1355-.0557-.2683-.1595-.3683-.1042-.1005-.2483-.1592-.4012-.1592s-.297.0587-.4012.1592c-.1038.1-.1594.2328-.1594.3683 0 .0047-.0001.0094-.0004.0142l-.32235 7.1442c-.00461.1021-.05854.1955-.14442.2501-.08589.0546-.19287.0635-.2865.0239-.45154-.1914-.94074-.2879-1.43482-.2827H5.97816c-.17158 0-.31068-.14-.31068-.3127V33.0546Zm.62136.3128v10.6341h1.52411c.43099-.0044.85922.0574 1.26889.1822l.30299-6.7142c.00209-.3074.12973-.5989.35094-.8122.22259-.2147.52173-.333.83103-.333s.6085.1183.8311.333c.2207.2128.3483.5037.3509.8104l.3643 6.5338h1.5384c.4035-.0037.8046.0501 1.1906.1591V33.3674H6.28884Z" clip-rule="evenodd"/>
  <path fill="#915E3A" d="M16.4037 46.3249c0-1.4399-1.4595-2.0107-2.7507-2.0107h-1.8363v1.3401c-.0002.1774.0727.3477.2025.4734.1299.1257.3061.1966.4902.1972h3.8943Z"/>
  <path fill="#45413C" fill-rule="evenodd" d="M11.506 44.3142c0-.1727.1391-.3127.3107-.3127h1.8363c.6838 0 1.4323.15 2.0212.511.6015.3688 1.0402.9643 1.0402 1.8123 0 .1727-.1391.3127-.3107.3127h-3.8953c-.2621-.0008-.5157-.1016-.7045-.2845-.1893-.1832-.2981-.4342-.2979-.6987m.6213-1.0274v1.0274c0 .0902.0369.1798.1073.248.0708.0685.1695.1094.2753.1098h3.5535c-.0846-.4275-.3456-.7406-.7125-.9655-.4637-.2843-1.0905-.4197-1.6979-.4197h-1.5257Zm-.6213 1.0274v-1.3401 1.3401Z" clip-rule="evenodd"/>
  <path fill="#915E3A" d="M10.5658 46.3249c0-1.4399-1.45999-2.0107-2.7512-2.0107H5.97827v1.3401c0 .1778.07319.3482.2035.474.1303.1257.30704.1964.49139.1966h3.89264Z"/>
  <path fill="#45413C" fill-rule="evenodd" d="M5.66748 44.3142c0-.1727.1391-.3127.31068-.3127h1.83633c.68385 0 1.43247.15 2.02142.511.60159.3688 1.04049.9643 1.04049 1.8123 0 .1727-.1391.3127-.3107.3127H6.67305c-.26251-.0002-.51697-.1007-.70641-.2835-.18989-.1833-.29916-.4347-.29916-.6997v-1.3401Zm.62136.3127v1.0274c0 .0904.03711.18.10783.2482.07116.0687.17043.1096.27661.1096h3.55222c-.0847-.4274-.34582-.7405-.71279-.9655-.46386-.2843-1.09086-.4197-1.69822-.4197H6.28884Z" clip-rule="evenodd"/>
  <path fill="#00B8F0" d="M18.906 30.2399c-.3322 0-.6508-.1272-.8857-.3537s-.3668-.5337-.3668-.854v-.8029c0-1.813-.7469-3.5518-2.0764-4.8338-1.3296-1.282-3.1328-2.0022-5.013-2.0022-1.88021 0-3.68342.7202-5.01294 2.0022-1.32951 1.282-2.07643 3.0208-2.07643 4.8338v5.3614c-.00007.088.01785.1752.05274.2566.03489.0813.08606.1553.1506.2175.06453.0623.14116.1117.2255.1454.08434.0337.17475.0511.26605.0511h1.33804l-.71504 7.9844c-.00838.0924.00327.1856.03422.2735.03095.0879.08052.1686.14556.2371.06504.0684.14412.1231.23224.1604.08811.0374.18333.0567.2796.0568H15.6462c.0963.0001.1916-.0191.2799-.0564.0882-.0374.1675-.092.2326-.1605.0652-.0684.1148-.1492.1459-.2372.031-.0879.0426-.1812.0343-.2737l-1.0685-11.9055c.1922 1.0107.658 1.9544 1.3501 2.7357.692.7813 1.5859 1.3725 2.591 1.7136.1053.0393.2189.0532.331.0406s.2193-.0514.3124-.1129c.0931-.0615.1693-.144.2219-.2403.0526-.0962.0801-.2034.0801-.3123v-3.9247H18.906Z"/>
  <path fill="#4ACFFF" d="M10.5892 23.8062c3.3274 0 6.1402 1.7544 7.0605 4.1652-.0691-1.7794-.8556-3.4625-2.1922-4.6913-1.3365-1.2288-3.1175-1.9061-4.9641-1.8879-1.8466.0182-3.61292.7305-4.92312 1.9854-1.31021 1.2548-2.06087 2.9531-2.09225 4.7335.86262-2.4827 3.72004-4.3049 7.11117-4.3049Z"/>
  <path fill="#009FD9" d="M10.6495 31.9125c.0686.1355.1752.2497.3078.3296.1326.0799.2858.1222.4421.1222.1564 0 .3096-.0423.4422-.1222.1325-.0799.2392-.1941.3077-.3296l.3752-.742c1.2478-2.4456 2.3443-4.9602 3.2839-7.5307-1.1353-1.2114-2.6837-1.9896-4.3637-2.1932-1.67996-.2037-3.37994.1809-4.79077 1.0836.7744 2.9181 3.08397 7.5764 3.62097 8.6403l.3746.742Z"/>
  <path fill="#FFCEBF" d="M20.1569 30.24h1.6686c.3217.0145.6253.1479.8477.3726.2223.2246.3464.5233.3464.8338 0 .3106-.1241.6093-.3464.8339-.2224.2247-.526.3581-.8477.3726h-1.6686V30.24Z"/>
  <path fill="#45413C" fill-rule="evenodd" d="M19.8462 30.2399c0-.1727.1391-.3127.3107-.3127h1.6686c.0046 0 .0092.0002.0138.0004.3976.0178.7754.1827 1.054.4642.279.2819.437.6594.437 1.0546s-.158.7727-.437 1.0546c-.2786.2815-.6564.4464-1.054.4642-.0046.0003-.0092.0004-.0138.0004h-1.6686c-.1716 0-.3107-.14-.3107-.3127v-2.413Zm.6214.3128v1.7875h1.3505c.2434-.0126.4703-.1142.635-.2806.1657-.1675.2558-.3873.2558-.6132s-.0901-.4457-.2558-.6132c-.1647-.1664-.3916-.268-.635-.2805h-1.3505Z" clip-rule="evenodd"/>
  <path fill="#45413C" fill-rule="evenodd" d="M5.33625 23.1699c1.3887-1.339 3.26945-2.0891 5.22785-2.0891 1.9584 0 3.8392.7501 5.2279 2.0891 1.3891 1.3395 2.1722 3.1592 2.1722 5.0596v.8029c0 .2329.0958.4592.2711.6282.1757.1694.4167.2668.6707.2668h1.2509c.1716 0 .3107.14.3107.3127v3.9247c0 .1621-.041.3211-.1186.4631-.0775.1418-.189.262-.3235.3509-.1345.0889-.2885.1443-.4485.1623-.1584.0178-.3191-.0015-.4687-.0564-1.0536-.3583-1.992-.9789-2.7197-1.8005-.2294-.2589-.4353-.535-.6161-.825l.8758 9.7582c0 .0001 0 0 0 0 .0124.1377-.005.2765-.0509.4068-.046.1303-.1192.2491-.2143.349-.0951.0998-.2099.1787-.3366.2323-.1268.0537-.2632.0811-.4008.0809l.0005-.3125v.3125H5.48425c-.13742 0-.27373-.0276-.4003-.0813-.12659-.0537-.24118-.1327-.33606-.2325-.09491-.0999-.16802-.2185-.21387-.3488-.04586-.1302-.06325-.2686-.0508-.4062.00001-.0001 0 0 0 0l.6845-7.6434h-.99809c-.13032 0-.25964-.0248-.3807-.0732-.12107-.0483-.23191-.1196-.32586-.2102-.09398-.0907-.16925-.1991-.22083-.3194-.05156-.1202-.07825-.2496-.07818-.3805m7.40004-11.8847c-1.802 0-3.52767.6904-4.798 1.9153-1.26988 1.2245-1.98068 2.8823-1.98068 4.608v5.3614c-.00003.045.00912.0902.0273.1327.0182.0424.04528.0819.08037.1157.03511.0339.07752.0615.12514.0805.04763.019.09912.029.1514.029h1.33804c.08725 0 .17047.0369.22933.1017.05886.0648.08793.1516.08009.239l-.71503 7.9844c-.00429.0473.0016.0955.01763.141.01604.0456.04207.0884.07724.1254.0352.0371.07878.0674.12842.0885.04964.0211.1038.0321.1589.0322.00001 0-.00001 0 0 0H15.6466c.0552 0 .1094-.011.1591-.032.0498-.021.0934-.0514.1287-.0885.0352-.037.0613-.0798.0774-.1254.016-.0456.022-.0935.0177-.1408L14.961 30.3686c-.0149-.166.1022-.3146.2662-.3378.164-.0232.3172.0871.3483.2508.1815.9542.6215 1.8465 1.2769 2.5864.6554.74 1.5033 1.3012 2.4584 1.6254.0029.001.0058.002.0086.0031.0596.0222.1244.0302.1886.023.0642-.0072.1247-.0293.1764-.0635.0516-.0341.0925-.0789.1202-.1296.0276-.0506.0416-.106.0417-.1616 0 0 0 .0001 0 0v-3.612h-.9403c-.4104 0-.8065-.157-1.1006-.4406-.2945-.284-.4626-.6721-.4626-1.0798v-.8029c0-1.7257-.7108-3.3835-1.9807-4.608-1.2703-1.2249-2.996-1.9153-4.798-1.9153Zm-5.22785 1.4637c-1.38916 1.3395-2.17219 3.1592-2.17219 5.0596l2.17219-5.0596Zm-2.17219 5.0596v5.3614-5.3614Z" clip-rule="evenodd"/>
  <path fill="#45413C" fill-rule="evenodd" d="M6.81251 26.7063c.17158 0 .31068.14.31068.3127v7.2382c0 .1727-.1391.3127-.31068.3127s-.31068-.14-.31068-.3127V27.019c0-.1727.1391-.3127.31068-.3127Z" clip-rule="evenodd"/>
  <path fill="#FFCEBF" d="M4.31006 35.8655c0 .3203.13196.6275.36686.854.2349.2265.55348.3538.88568.3538.33219 0 .65078-.1273.88568-.3538.23489-.2265.36686-.5337.36686-.854v-1.6084H4.31006v1.6084Z"/>
  <path fill="#45413C" fill-rule="evenodd" d="M3.99939 34.257c0-.1727.1391-.3127.31068-.3127h2.50508c.17158 0 .31068.14.31068.3127v1.6085c0 .4077-.16808.7958-.46262 1.0798-.29408.2836-.69021.4406-1.1006.4406-.41039 0-.80652-.157-1.1006-.4406-.29454-.284-.46262-.6721-.46262-1.0798V34.257Zm.62136.3127v1.2958c0 .2329.09585.4592.2711.6282.17571.1694.41676.2668.67076.2668.25399 0 .49505-.0974.67076-.2668.17525-.169.2711-.3953.2711-.6282v-1.2958H4.62075ZM15.1528 26.7063c.1716 0 .3107.14.3107.3127v2.0164c-.002.4181.0356.8356.1123 1.2473.0316.1697-.0794.3332-.2481.365-.1686.0318-.331-.0799-.3626-.2497-.084-.4503-.1251-.9072-.123-1.3649V27.019c0-.1727.1391-.3127.3107-.3127Z" clip-rule="evenodd"/>
  <path fill="#FFF48C" d="M40.521 35.6029c-.1606-.0001-.3161-.0539-.4402-.1521-.1241-.0982-.2091-.2348-.2406-.3866l-1.3903-6.7031c-.0273-.1322-.0128-.2692.0417-.3933.0545-.1241.1464-.2295.2638-.3025l4.1743-2.5873-2.9228-3.0981c-.1052-.1125-.1679-.2559-.1777-.407-.0099-.1512.0335-.3011.1232-.4253l2.3728-3.3046h-2.846c-.1096 0-.2177-.0251-.3154-.0731-.0977-.048-.1822-.1176-.2466-.2031L37.028 15.063l-1.0423 4.274c-.0394.1646-.142.3087-.2873.4031-.1452.0945-.3223.1322-.4953.1057l-3.5479-.5251.861 4.4314c.0168.0865.0157.1753-.003.2613-.0188.0861-.055.1677-.1065.2403-.0515.0726-.1173.1347-.1937.1827-.0764.0481-.1619.0812-.2515.0974-.0896.0162-.1817.0152-.271-.0029-.0892-.0181-.1739-.053-.2492-.1027-.0753-.0496-.1396-.1131-.1895-.1868-.0498-.0736-.0841-.156-.1009-.2425l-1.0429-5.3614c-.0208-.1054-.0151-.2142.0167-.317.0318-.1029.0888-.1969.1661-.2741.0773-.0772.1728-.1353.2783-.1695.1055-.0343.218-.0435.328-.0271l3.8823.5777 1.2428-5.0937c.0305-.1248.0976-.2386.1931-.3279.0956-.0892.2158-.1501.3462-.1755.1304-.0254.2657-.0142.3897.0324.124.0465.2315.1263.3099.23l2.5715 3.4101h3.8165c.1265.0003.2506.0338.3589.0971.1082.0632.1965.1537.2554.2618.0588.108.0859.2295.0784.3514-.0074.1218-.0493.2393-.1209.3399l-2.8133 3.9179 3.1041 3.292c.0679.0721.1187.1577.1488.2506.0302.093.039.1912.0258.2878-.0131.0966-.048.1893-.102.2716-.054.0823-.126.1522-.2109.205l-4.4656 2.7684 1.295 6.2531c.0361.1741-.001.3549-.1032.5026-.1021.1477-.2609.2502-.4414.2851-.0451.0096-.0911.0149-.1372.0157Z"/>
  <path fill="#45413C" d="M36.5026 12.5236c.1862-.0363.3794-.0203.5571.0463.1778.0667.3339.1819.4487.3338l2.4785 3.2867h3.6628c.1805.0004.3582.0482.5142.1393.1561.0912.2852.2228.3719.382.0868.1594.1273.3396.1161.521-.0111.1813-.0734.3552-.1785.5028l-.0007.001-2.6624 3.7076 2.9267 3.1038c.0991.1052.1742.2311.2189.3689.0447.1378.0578.2837.0382.4273-.0195.1436-.0712.2806-.1506.4015-.0794.1208-.1843.2225-.3069.2987l-4.2802 2.6535 1.2505 6.0381c.0538.2594-.002.5277-.1522.745-.1494.2159-.3785.3627-.635.413-.0634.0133-.128.0206-.1928.0219h-.0062c-.2288-.0002-.4522-.0767-.6319-.219-.1801-.1425-.3059-.3428-.3527-.5686l-1.3903-6.703c-.0406-.1964-.0189-.4001.0616-.5836.0805-.1833.2153-.3367.3847-.4421l3.8486-2.3854-2.6591-2.8187-.0009-.0009c-.1536-.1642-.2468-.3758-.2615-.6009-.0148-.225.0501-.4469.1816-.6293l.0003-.0003 2.0162-2.8081h-2.2381c-.1564 0-.3112-.0357-.4517-.1048-.1405-.069-.2633-.1697-.3577-.295l-1.4953-1.9817-.8867 3.6359-.0002.0008c-.0587.2447-.2106.4553-.4206.5919-.2096.1362-.463.1899-.7097.1523l-.001-.0002-3.112-.4606.7768 3.9978c.0249.1285.0234.2605-.0045.3884s-.0815.2484-.1571.355c-.0755.1065-.1715.1967-.2818.2661-.1104.0694-.2331.1168-.3613.1399-.1281.0232-.2596.0218-.3873-.0041-.1276-.0259-.2493-.0759-.3581-.1476-.1088-.0718-.2028-.1642-.276-.2724-.0732-.1082-.124-.2299-.149-.3584l-1.0427-5.3604-.0001-.0006c-.0309-.1565-.0223-.318.0249-.4705.0471-.1525.1312-.2906.2439-.4031.1127-.1125.2507-.1962.4019-.2452.151-.049.3116-.0622.4687-.0387l3.6026.536 1.1753-4.8172c.0453-.1855.1445-.3528.2836-.4827.139-.1297.3122-.217.4985-.2532Z"/>
  <path fill="#FFAA54" d="m43.9965 36.9428 2.3608-1.5932c.0633-.0427.1101-.1045.133-.1757.0228-.0712.0204-.1476-.0069-.2174-.0273-.0697-.078-.1286-.1439-.1674-.0659-.0389-.1434-.0554-.2202-.0471l-1.2781.1371c-.0557.0059-.1121-.0013-.1643-.0209-.0523-.0196-.0988-.0511-.1357-.0918-.0369-.0407-.063-.0893-.0762-.1418-.0132-.0526-.0131-.1074.0004-.1598l.3093-1.1936c.0179-.069.0125-.1416-.0153-.2074-.0277-.0658-.0765-.1213-.1391-.1587-.0627-.0373-.1361-.0545-.2095-.049-.0735.0055-.1432.0333-.1992.0795l-1.2857 1.0623c-.0388.0322-.0846.0557-.1339.0689-.0494.0131-.1011.0155-.1516.0071-.0504-.0084-.0983-.0275-.1402-.0559-.0419-.0284-.0767-.0654-.102-.1083l-.8801-1.4845c-.0304-.0513-.0743-.0939-.1273-.1236-.0529-.0296-.1131-.0453-.1744-.0453-.0612 0-.1214.0157-.1744.0453-.053.0297-.0969.0723-.1273.1236l-.8795 1.4845c-.0253.0429-.0602.0799-.1022.1083-.0419.0284-.0898.0475-.1403.0559-.0505.0084-.1023.006-.1517-.0071-.0494-.0132-.0952-.0367-.134-.0689l-1.2852-1.0623c-.056-.0464-.1258-.0745-.1993-.0801-.0736-.0056-.1471.0116-.2099.049-.0628.0373-.1116.093-.1394.159-.0278.0659-.0331.1387-.0151.2077l.3094 1.1936c.0136.0524.0138.1072.0007.1597-.0131.0526-.0392.1012-.0761.1419s-.0834.0722-.1356.0919c-.0522.0196-.1086.0267-.1643.0208l-1.2786-.1371c-.0768-.0082-.1542.0085-.22.0474s-.1163.0978-.1435.1675c-.0273.0696-.0297.146-.0068.2172.0228.0711.0695.1328.1328.1755l2.3602 1.5932h5.5602Z"/>
  <path fill="#45413C" fill-rule="evenodd" d="M40.891 32.028c.0997-.0557.2119-.0846.3254-.0846.1136 0 .2258.0289.3254.0846.0998.0559.1841.137.2431.2367.0001 0 0 0 0 0l.8804 1.4851c.0014.0023.004.0055.0084.0085.0046.0031.0105.0056.0177.0068.0071.0012.0144.0009.0212-.0009.0067-.0018.012-.0048.0157-.0079l.0005-.0004 1.2857-1.0623c.1064-.0878.2373-.1395.3733-.1497.136-.0101.2728.0215.3908.0918.1181.0704.2124.1767.2668.3056.0545.1291.0652.2724.03.4084l-.3092 1.1931c-.0004.0017-.0004.0032 0 .0048.0004.0017.0015.0044.0045.0077.003.0034.0079.007.0148.0096.0069.0026.0149.0038.0231.0029 0 0-.0001 0 0 0l1.2773-.1369c.0001-.0001-.0001 0 0 0 .1421-.0155.2866.0149.4106.088.1243.0732.2224.186.2759.3227.0536.1369.0585.2879.0135.4281-.0448.1399-.1359.2586-.2556.3393l-2.3607 1.5932c-.0512.0346-.1114.053-.1731.053h-5.5602c-.0616 0-.1218-.0185-.173-.053l-2.36-1.5931c-.0001 0 0 .0001 0 0-.1197-.0807-.2108-.1994-.2557-.3392-.0449-.1401-.0401-.2909.0133-.4278.0534-.1366.1513-.2494.2754-.3227.1239-.0732.268-.1038.4102-.0886l1.2785.137s-.0001 0 0 0c.008.0009.016-.0002.0229-.0028.0068-.0026.0116-.0062.0146-.0095.0029-.0032.004-.0059.0044-.0075.0004-.0015.0004-.003 0-.0045l-.3093-1.1933c0-.0001 0 .0001 0 0-.0354-.1361-.0249-.2798.0296-.4091.0543-.1291.1488-.2356.2672-.3061.1182-.0704.2553-.1019.3915-.0916.1361.0104.267.0623.3732.1504l.0003.0003 1.2848 1.0619c.0038.0031.0094.0063.0162.0082.0068.0018.0142.0021.0214.0009.0072-.0012.0133-.0038.0178-.0069.0046-.003.0072-.0062.0086-.0087l.8797-1.4847c.059-.0997.1434-.1809.2431-.2368Zm.3254.5408c-.009 0-.0171.0023-.0234.0058-.0062.0035-.0097.0076-.0114.0105l-.8794 1.4842c-.0493.0834-.1164.1542-.1958.2079-.0793.0537-.1691.0892-.2629.1049-.0937.0157-.1899.0112-.2818-.0133-.0919-.0244-.178-.0684-.2519-.1295l-1.2857-1.0627c-.0055-.0046-.0142-.0087-.0251-.0095-.0109-.0009-.0209.0018-.0283.0062-.0072.0043-.0103.0092-.0115.0119-.0006.0014-.0008.0026-.0008.0034-.0001.0009 0 .0019.0003.003l.0001.0004.3093 1.1935c.0268.1032.0273.2114.0014.315-.0258.1035-.077.1981-.1478.2763-.0707.0781-.159.1375-.2566.1741-.0975.0367-.2023.0499-.3056.0389l-1.2788-.1371c-.0114-.0012-.022.0014-.0298.006-.0075.0045-.0107.0096-.0117.0123-.0006.0014-.0007.0026-.0008.0035 0 .0008.0001.0019.0005.0031.0008.0024.0032.0073.0101.0119l2.2819 1.5403h5.3711l2.2823-1.5402c.0068-.0046.0095-.0097.0103-.012.0004-.0013.0005-.0023.0005-.0032 0-.0006-.0001-.0013-.0003-.002-.0001-.0005-.0003-.0009-.0005-.0014-.001-.0028-.0042-.0079-.0118-.0124-.0077-.0046-.0184-.0072-.0297-.006l-1.2791.1372c-.1033.0109-.2079-.0023-.3054-.0389-.0976-.0366-.1858-.0959-.2565-.1739-.0709-.0781-.122-.1727-.148-.2761-.026-.1034-.0257-.2115.0009-.3148l.0001-.0005.3093-1.1935c.0003-.0011.0003-.002.0003-.0029-.0001-.0009-.0003-.002-.0009-.0034-.0012-.0027-.0043-.0076-.0115-.0119-.0074-.0044-.0173-.0071-.0282-.0063-.0109.0008-.0195.0049-.0251.0095l-1.2853 1.0619s.0001 0 0 0c-.0738.0612-.1601.1053-.252.1298-.0919.0244-.1881.029-.2819.0133-.0937-.0157-.1835-.0513-.2628-.105-.0792-.0537-.1462-.1244-.1955-.2077 0-.0001.0001.0001 0 0l-.8799-1.4842c-.0017-.0029-.0052-.0071-.0114-.0106-.0063-.0035-.0145-.0058-.0235-.0058Z" clip-rule="evenodd"/>
  <path fill="#FFFCE5" d="m31.0638 31.4579 1.1795 1.4278c.0507.0613.1189.107.1961.1315.0773.0245.1603.0266.2388.0062.0785-.0204.1492-.0625.2032-.1211.054-.0586.0891-.1312.1009-.2088l.2865-1.8752c.0136-.0897.0583-.1724.1269-.2345.0685-.0622.1567-.1002.2505-.1079l1.8957-.1575c.065-.0054.1278-.0254.1834-.0585.0555-.033.1023-.0781.1365-.1317.0342-.0536.0549-.1142.0604-.177.0056-.0627-.0042-.1258-.0285-.1842l-.5446-1.3002c-.0233-.0557-.0333-.1157-.0293-.1757.0039-.0599.0218-.1182.0522-.1707.0304-.0524.0726-.0976.1235-.1322.0508-.0347.1091-.0579.1705-.068l2.7616-.4516c.0848-.014.163-.053.224-.1115.0609-.0586.1016-.1338.1164-.2155.0149-.0817.0032-.1659-.0335-.2409-.0367-.075-.0965-.1373-.1713-.1783l-2.4604-1.3432c-.075-.0411-.135-.1035-.1718-.1787-.0367-.0752-.0485-.1595-.0335-.2414l.5865-3.2852c.0121-.0679.006-.1377-.0179-.2027-.0239-.0649-.0647-.1229-.1185-.1683-.0538-.0454-.1188-.0767-.1888-.0909-.0699-.0142-.1425-.0108-.2107.0098l-2.2181.6758c-.0533.0162-.1095.0219-.1652.0167-.0557-.0052-.1097-.0212-.1589-.047-.0491-.0257-.0924-.0608-.1272-.103-.0348-.0423-.0604-.0909-.0753-.1429l-.495-1.7234c-.0198-.069-.0584-.1317-.1118-.1815-.0534-.0498-.1197-.0849-.1919-.1018-.0722-.0168-.1478-.0147-.2188.0061-.0711.0209-.1351.0596-.1855.1123l-1.2988 1.3606c-.0687.072-.1623.1174-.2633.1277-.1009.0102-.2023-.0154-.2851-.072l-1.7878-1.2241c-.0556-.038-.12-.0624-.1875-.0709-.0676-.0085-.1363-.0009-.2001.0221-.0639.023-.1209.0607-.1661.1099-.0452.0491-.0773.1082-.0933.1721l-.6056 2.4192c-.0228.0903-.0773.1702-.1542.2262-.0769.0559-.1715.0846-.2678.081l-1.8848-.072c-.0747-.0022-.1487.015-.2141.0499-.0654.0348-.1199.086-.1578.1481-.0379.0621-.0577.1329-.0574.205.0002.072.0206.1427.0589.2046l1.1437 1.8064c.0523.0826.072.1807.0554.2762-.0166.0955-.0684.182-.1458.2436l-1.2711 1.0146c-.0621.0495-.108.1154-.1322.1896-.0241.0742-.0254.1535-.0037.2284.0216.0749.0653.1421.1258.1936.0605.0514.1351.0848.2149.0962l1.7247.2452c.0652.0094.1271.0334.1808.0703s.0975.0855.128.1418c.0304.0564.0466.1189.0472.1824.0005.0636-.0145.1263-.044.1832l-1.0489 2.0175c-.0371.0714-.0513.1518-.0409.2311.0105.0792.0452.1536.0997.2138.0545.0602.1263.1033.2064.1239.08.0207.1646.0179.2429-.008l2.198-.7257c.058-.0192.1197-.0257.1806-.0193.0609.0065.1197.0258.172.0567.0523.0308.0969.0724.1306.1217.0338.0494.0558.1053.0646.1638l.2494 1.6646c.0115.0767.0458.1486.0986.207.0529.0584.1221.1008.1993.1221.0773.0214.1593.0208.2362-.0017.0769-.0226.1454-.066.1973-.1252l.7739-.8848c.0397-.0455.0895-.0818.1456-.1065.0561-.0247.1172-.0371.1788-.0363.0617.0008.1224.0148.1778.0409.0554.0262.1041.0638.1426.1103Z"/>
  <path fill="#45413C" fill-rule="evenodd" d="m28.5401 19.6667 1.7878 1.224c.0215.0147.0499.0225.0792.0195.0294-.003.0541-.016.0705-.0332l1.2988-1.3606c.0888-.0929.2005-.1601.3227-.1959m-1.0353 12.1374.2389-.2 1.1795 1.4278c.0117.0141.0288.0263.0505.0332.0217.0069.0455.0075.0678.0017s.0404-.0172.0531-.031c.0126-.0137.0194-.029.0216-.0435l.2865-1.8752c.0248-.1627.1056-.3102.226-.4195.1201-.1089.2728-.174.4329-.1872" clip-rule="evenodd"/>
  <path fill="#915E3A" d="M29.0553 27.0311c-.0419-.2092-.1682-.3939-.3511-.5135-.183-.1196-.4076-.1644-.6248-.1245l-3.1193.5777c-.1161.0217-.226.067-.3225.1328-.0965.0659-.1774.1507-.2373.249-.0599.0983-.0974.2077-.1101.3211-.0127.1133-.0002.2279.0365.3363l.6775 1.9954-7.146 2.0459c-.19.0543-.3537.1721-.4617.3322-.1081.1601-.1535.3521-.1281.5415l.2815 2.0648-1.7971.7268.1509 1.6835 2.8786-1.1642c.1689-.0679.3098-.1876.401-.3405.0913-.1529.1278-.3306.1038-.5055l-.2722-1.9954 7.2832-2.0816c.1069-.0304.2064-.0813.2925-.1495.0862-.0682.1573-.1524.2091-.2476.0518-.0952.0832-.1995.0925-.3066.0093-.1071-.0039-.2149-.0386-.3171l-.6497-1.9146 2.1892-.4048c.2173-.0402.4091-.162.5333-.3386.1242-.1765.1706-.3934.1289-.603Z"/>
  <path fill="#45413C" fill-rule="evenodd" d="M28.0237 26.0855c.2941-.0541.5994.0062.8497.1698.2507.164.4275.4197.4865.714l.0001.0004c.0586.2951-.0071.5993-.18.8451-.1724.2452-.4362.4109-.7307.4654l-1.835.3393.5332 1.5713m-.7647 1.423-7.0234 2.0073-.0367-.2692-.3078.0426.0848.3008.2597-.0742.2355 1.7261c.0337.2464-.0179.4958-.1452.7091-.1271.213-.3217.3771-.5516.4697l-.1158-.2902.1154.2904-2.8782 1.164c-.0912.0369-.1943.0282-.2781-.0235-.0837-.0516-.1383-.1401-.1471-.2386l-.1509-1.6835c-.0123-.1375.0664-.2668.1936-.3182l1.5722-.6358.033.2417.3077-.0425-.1158-.2902-.2249.091-.2486-1.8231-.0001-.0007c-.0358-.2669.0285-.5361.179-.7591.1502-.2226.3757-.3834.6337-.4573l6.8312-1.9557.1058.3118.294-.1011-.085-.3008-.3148.0901-.5717-1.6837c-.0515-.1518-.0691-.313-.0512-.4724.0178-.1594.0706-.3126.154-.4495.0834-.1369.1954-.254.3278-.3444.1324-.0903.2824-.1519.4399-.1814l.0007-.0001 3.1198-.5777m.1115.6152s.0001 0 0 0l-3.1182.5774c-.0001 0 0 0 0 0-.0745.014-.1445.043-.2051.0843-.0606.0414-.1104.094-.1467.1537-.0364.0596-.0587.1253-.0663.1925-.0075.0673-.0002.1354.0218.2002l.6775 1.9954c.0275.0812.0208.1702-.0187.2462-.0396.0759-.1083.1323-.1903.1557l-7.146 2.0459c-.1218.0348-.2238.1095-.2897.2071-.0656.0972-.0922.2118-.0772.3238 0 .0001-.0001-.0001 0 0l.2814 2.0643c.0194.1421-.0597.2792-.1919.3327l-1.5828.6401.0926 1.0331 2.4909-1.0074.0005-.0002c.1076-.0433.1947-.1185.25-.2112.0552-.0924.0765-.1983.0624-.3018l-.2723-1.9955c-.0211-.1544.074-.3008.2229-.3434l7.2833-2.0815c.0684-.0195.1314-.0519.1853-.0945.0538-.0426.0973-.0945.1286-.1521.0313-.0575.05-.1199.0555-.1834.0055-.0636-.0023-.1277-.023-.1888l-.6498-1.9147c-.0292-.0861-.0197-.1807.026-.2592.0456-.0785.123-.133.2119-.1495l2.1892-.4048c.14-.0259.26-.1037.3359-.2117.0755-.1073.1024-.2368.0778-.3608-.0249-.1241-.1007-.2376-.2158-.3128-.1155-.0755-.2596-.1048-.3997-.0791Z" clip-rule="evenodd"/>
  <path fill="#E04122" d="M32.4368 28.8243c-.4783.3117-1.0418.4797-1.619.4826-.5773.003-1.1426-.1592-1.6243-.466s-.8582-.7444-1.082-1.2575c-.2238-.5132-.2847-1.0788-.1751-1.6253.1096-.5466.3847-1.0495.7908-1.4452.406-.3958.9245-.6665 1.4901-.7781.5656-.1115 1.1528-.0589 1.6873.1514.5346.2102.9925.5685 1.3158 1.0297.2147.3062.3648.6503.4416 1.0124.0768.3622.0789.7354.0062 1.0983-.0728.363-.219.7085-.4303 1.017-.2113.3084-.4835.5737-.8011.7807Z"/>
  <path fill="#FF6242" d="M33.2203 24.9158c-.2718-.3909-.6413-.7094-1.0743-.9265-.4331-.217-.9158-.3254-1.4037-.3153-.4879.0101-.9654.1384-1.3884.3731-.423.2347-.7779.5683-1.0321.97.5571-.3373 1.2162-.4827 1.87-.4124.6537.0702 1.2635.3519 1.7299.7992.4664.4473.7619 1.0338.8383 1.6638.0764.63-.0708 1.2664-.4176 1.8053.0305-.0183.0637-.0288.0942-.0488.3177-.207.5899-.4723.8012-.7807.2113-.3085.3575-.654.4302-1.017.0728-.3629.0707-.7361-.0061-1.0983-.0768-.3622-.2269-.7062-.4416-1.0124Z"/>
  <path fill="#45413C" fill-rule="evenodd" d="M31.7915 24.1774c-.4794-.1885-1.0066-.2359-1.5145-.1357-.5079.1001-.9719.343-1.3338.6958-.3619.3526-.6055.7992-.7024 1.2824-.0969.4831-.0431.9832.1551 1.4377.1983.4547.5329.8447.9636 1.119.4309.2745.9378.4203 1.4566.4176.5187-.0027 1.0239-.1536 1.4517-.4324.284-.1851.5265-.4217.7142-.6958.1877-.274.3172-.5803.3815-.9013.0644-.3209.0625-.6508-.0054-.9711-.068-.3203-.2008-.6253-.3916-.8974-.2874-.4099-.6958-.7303-1.175-.9188Zm-1.634-.7495c.6232-.1229 1.2703-.065 1.8601.167.5898.2319 1.0972.6282 1.4565 1.1406.2387.3404.4059.7235.4916 1.1275.0857.404.0881.8205.0069 1.2254-.0812.405-.2442.7898-.479 1.1326-.2349.3429-.5368.6368-.8881.8658-.5288.3446-1.1504.5295-1.7863.5328-.6358.0032-1.2594-.1753-1.7919-.5145-.5327-.3392-.9511-.8245-1.2004-1.3961-.2493-.5718-.3175-1.2028-.1952-1.8128.1223-.6099.429-1.1692.8792-1.608.45-.4387 1.0233-.7373 1.6466-.8603Z" clip-rule="evenodd"/>
  <path fill="#FFCEBF" d="M24.1634 31.0544c-.0574-.2077-.1601-.4011-.3013-.5674-.1412-.1663-.3176-.3016-.5174-.3968-.1998-.0952-.4184-.1481-.6411-.1553-.2228-.0071-.4445.0317-.6504.1139-.3573.1588-.6434.4363-.8059.7818-.1625.3455-.1906.7359-.0791 1.0997l.1051.3775c.0705.2535.241.4703.475.6043.234.1341.513.1746.7775.113l1.0135-.2384c.1351-.0315.2623-.0888.374-.1684.1118-.0797.206-.18.277-.2952.0711-.1152.1175-.2429.1366-.3757.0192-.1327.0106-.2678-.0252-.3973l-.1383-.4957Z"/>
  <path fill="#45413C" fill-rule="evenodd" d="M21.9385 29.7583c.2457-.0981.5099-.1442.7749-.1357.265.0085.5255.0715.7642.1852.2387.1137.4504.2758.6206.4762.1701.2004.2946.4343.3643.6864 0 .0001.0001.0003.0001.0004l.1384.4958c.0472.1712.0586.3501.0333.5259-.0254.1758-.0868.3443-.1801.4957-.0933.1513-.2164.2822-.3615.3855-.145.1033-.3092.1771-.4829.2178-.0001 0 .0001-.0001 0 0l-1.0134.2383-.0007.0002c-.3398.0791-.6987.0273-1.0012-.1459-.3028-.1734-.5271-.4563-.6205-.7917l-.104-.3738c-.1331-.4377-.0986-.907.0964-1.3216.1954-.4154.5377-.7459.9611-.9341.0037-.0016.0073-.0031.011-.0046Zm.2346.5792c-.2886.1298-.5163.3533-.6451.6271-.1294.2752-.1515.5849-.063.8737l.0023.0078.1051.3776c.0477.1715.1642.3223.3294.4169.1655.0947.3644.1241.5536.0802.0001-.0001-.0001 0 0 0l1.0135-.2385c.0964-.0225.1864-.0632.2649-.1191.0785-.0559.1437-.1257.1924-.2048.0488-.079.0802-.166.0932-.2557.0129-.0895.0071-.1806-.017-.2683 0-.0001-.0001-.0002-.0001-.0004l-.1381-.4949-.0002-.0007c-.0451-.1631-.126-.3159-.2382-.448-.1122-.1322-.2532-.2407-.4141-.3173-.161-.0767-.3376-.1196-.5181-.1254-.1785-.0058-.3559.025-.5205.0898Z" clip-rule="evenodd"/>
  <path fill="#FFCEBF" d="M14.7356 14.5575c.0063-.5319-.0969-1.0597-.3037-1.5529-.2067-.4932-.5129-.942-.9007-1.3203-.3879-.3782-.8497-.6786-1.3588-.8835-.5091-.205-1.0553-.3106-1.607-.3106-.5516 0-1.09784.1056-1.60692.3106-.50907.2049-.97092.5053-1.35878.8835-.38786.3783-.69402.8271-.90076 1.3203-.20675.4932-.30995 1.021-.30365 1.5529v1.6085c-.0063.5319.0969 1.0597.30365 1.5529.20674.4932.5129.9419.90076 1.3202.38786.3783.84971.6786 1.35878.8836.50908.205 1.05532.3105 1.60692.3105.5517 0 1.0979-.1055 1.607-.3105.5091-.205.9709-.5053 1.3588-.8836.3878-.3783.694-.827.9007-1.3202.2068-.4932.31-1.021.3037-1.5529v-1.6085Z"/>
  <path fill="#45413C" fill-rule="evenodd" d="M8.8431 10.5104c.54601-.2199 1.13139-.3329 1.7223-.3329.591 0 1.1764.113 1.7224.3329.546.2198 1.0422.5423 1.4596.9493.4173.4071.7476.8907.9708 1.4233.223.5319.3346 1.1017.3281 1.6763v1.6048c.0065.5746-.1051 1.1443-.3281 1.6763-.2232.5326-.5535 1.0162-.9708 1.4232-.4174.4071-.9136.7296-1.4596.9494-.546.2199-1.1314.3329-1.7224.3329-.59091 0-1.17629-.113-1.7223-.3329-.54602-.2198-1.04225-.5423-1.45959-.9494-.41737-.407-.74758-.8906-.97081-1.4232-.223-.532-.33463-1.1018-.32808-1.6763v-1.6048c-.00655-.5746.10508-1.1444.32808-1.6763.22323-.5326.55344-1.0162.97081-1.4233.41734-.407.91357-.7295 1.45959-.9493Zm1.7223.2925c-.5124 0-1.01937.098-1.49151.2881-.47213.1901-.8996.4683-1.25797.8179-.35835.3495-.64048.7633-.83073 1.2172-.19023.4538-.28502.939-.27923 1.4277l.00004.0037-.00002 1.6121c-.00579.4887.08898.9739.27921 1.4277.19025.4539.47238.8677.83073 1.2172.35837.3496.78584.6278 1.25797.8178.47214.1901.97911.2882 1.49151.2882.5124 0 1.0195-.0981 1.4916-.2882.4721-.19.8996-.4682 1.258-.8178.3583-.3495.6404-.7633.8307-1.2172.1902-.4538.285-.939.2792-1.4277V14.5538c.0058-.4887-.089-.9739-.2792-1.4277-.1903-.4539-.4724-.8677-.8307-1.2172-.3584-.3496-.7859-.6278-1.258-.8179-.4721-.1901-.9792-.2881-1.4916-.2881Z" clip-rule="evenodd"/>
  <path fill="#45413C" d="M9.83586 14.9597c-.10307 0-.20384.0295-.28954.0847-.08571.0552-.15251.1337-.19195.2255-.03945.0919-.04977.1929-.02966.2904.02011.0975.06975.187.14263.2573.07289.0703.16575.1181.26685.1375.10109.0194.20588.0095.30111-.0286.0952-.038.1766-.1024.2339-.1851.0573-.0826.0878-.1798.0878-.2791 0-.066-.0135-.1314-.0396-.1924-.0262-.0609-.0646-.1163-.113-.163-.0484-.0467-.1059-.0837-.1691-.1089-.06323-.0253-.131-.0383-.19944-.0383ZM12.9635 14.9597c-.103 0-.2038.0295-.2895.0847-.0857.0552-.1525.1337-.1919.2255-.0395.0919-.0498.1929-.0297.2904.0201.0975.0697.187.1426.2573.0729.0703.1658.1181.2669.1375.1011.0194.2059.0095.3011-.0286.0952-.038.1766-.1024.2339-.1851.0572-.0826.0878-.1798.0878-.2791.0001-.0661-.0133-.1314-.0395-.1924s-.0646-.1165-.113-.1631c-.0484-.0467-.1059-.0837-.1691-.109-.0633-.0252-.1311-.0382-.1996-.0381Z"/>
  <path fill="#FFB59E" d="M8.48047 16.9704c0 .1066.04395.2089.12218.2844.07823.0754.18433.1178.29497.1178.11063 0 .21674-.0424.29497-.1178.07823-.0755.12218-.1778.12218-.2844 0-.1067-.04395-.209-.12218-.2845-.07823-.0754-.18434-.1178-.29497-.1178-.11064 0-.21674.0424-.29497.1178-.07823.0755-.12218.1778-.12218.2845Z"/>
  <path fill="#E0E0E0" d="M15.1528 20.9912c0 2.2212-3.7533 9.6511-3.7533 9.6511s-3.75326-7.432-3.75326-9.6511c0-2.2192 1.45022-3.6191 3.75326-3.6191 2.303 0 3.7533 1.3984 3.7533 3.6191Z"/>
  <path fill="#45413C" fill-rule="evenodd" d="M8.87408 18.5752c-.57953.559-.91727 1.377-.91727 2.4159 0 .4949.21596 1.3287.56891 2.3406.34801.9978.81352 2.1264 1.28117 3.1907.46731 1.0634.93481 2.0583 1.28571 2.7876.1166.2426.2204.4556.3068.6319.0865-.1762.1902-.3892.3068-.6316.3509-.7292.8184-1.7239 1.2857-2.7872.4676-1.0641.9332-2.1926 1.2812-3.1905.3529-1.0119.5689-1.8461.5689-2.3415 0-1.0398-.3378-1.8577-.9173-2.4165-.5809-.5602-1.4361-.8899-2.5253-.8899-1.0891 0-1.94434.3301-2.52532.8905Zm2.52532 12.067c-.277.1417-.277.1417-.277.1416l-.011-.0218-.0317-.0632c-.0277-.0554-.0682-.1367-.1197-.2409-.1031-.2084-.2502-.5085-.4267-.8753-.3529-.7335-.82363-1.7353-1.29467-2.8073-.47067-1.0711-.94347-2.2165-1.29919-3.2364-.3508-1.0057-.60399-1.933-.60399-2.5478 0-1.1802.38737-2.1717 1.10871-2.8675.71989-.6943 1.74124-1.0643 2.95524-1.0643 1.2138 0 2.2353.3695 2.9552 1.0637.7214.6956 1.1087 1.6872 1.1087 2.8681 0 .6153-.2531 1.5428-.6039 2.5487-.3558 1.0199-.8286 2.1653-1.2993 3.2363-.471 1.0719-.9418 2.0735-1.2946 2.8068-.1765.3668-.3237.6667-.4267.8751-.0515.1042-.0921.1855-.1198.2409l-.0316.0631-.0109.0215c0 .0001-.0002.0005-.2771-.1413Zm0 0 .2769.1418c-.053.1049-.16.1709-.2769.1709-.117 0-.224-.0662-.277-.1711l.277-.1416Z" clip-rule="evenodd"/>
  <path fill="#E0E0E0" d="M14.3658 20.5895s-.8343-1.4079-1.6681-1.609c-.4471-.1076-.8343-.3597-.8343-.804 0-.2133.0879-.4179.2444-.5688.1564-.1509.3686-.2356.5899-.2356 2.1533 0 1.6681 3.2174 1.6681 3.2174Z"/>
  <path fill="#45413C" fill-rule="evenodd" d="M12.6977 17.6847c-.1431 0-.2777.055-.375.1488-.0968.0933-.1486.217-.1486.343 0 .1176.0465.2091.1412.291.1026.0887.2599.1619.4547.2088.2723.0657.5231.2232.7363.398.216.1771.4126.388.5766.5856.0055.0067.0109.0133.0163.0198-.0064-.2032-.0253-.4236-.0655-.6421-.0689-.3749-.1954-.7162-.4026-.9591-.1969-.2307-.4834-.3938-.9334-.3938Zm1.6681 2.9047c.3071.0469.3071.0468.3072.0467l.0001-.0011.0004-.0026.0012-.0086c.001-.0072.0024-.0174.0041-.0304.0033-.026.0078-.0632.0126-.11.0097-.0935.0208-.2259.027-.3844.0123-.3149.0059-.7422-.0737-1.1752-.0789-.4294-.2348-.8924-.5422-1.2528-.3178-.3725-.7782-.6117-1.4048-.6117-.2995 0-.5892.1146-.8048.3226-.2162.2083-.3402.4939-.3402.7946 0 .3267.1471.5833.3578.7654.2027.1753.4626.2819.7149.3427.1446.0349.3108.1288.4885.2745.1749.1434.3432.3222.492.5017.1481.1785.2723.3521.3595.4813.0435.0644.0775.1173.1003.1536.0115.0182.0201.0322.0257.0414l.0061.0101.0013.0022c.0672.1133.1981.1723.3267.1469.1287-.0254.2278-.1297.2475-.2602l-.3072-.0467Z" clip-rule="evenodd"/>
  <path fill="#E0E0E0" d="M9.36161 20.5895s.83379-1.4079 1.66809-1.609c.4465-.1076.8337-.3597.8337-.804.0001-.1056-.0214-.2102-.0633-.3078-.0419-.0976-.1033-.1863-.1807-.261-.0774-.0747-.1694-.1339-.2705-.1744-.1012-.0404-.2097-.0612-.3192-.0612-2.15495 0-1.66809 3.2174-1.66809 3.2174Z"/>
  <path fill="#45413C" fill-rule="evenodd" d="M9.62438 17.671c.31795-.3726.77852-.6117 1.40542-.6117.1485 0 .2959.0282.4338.0833.138.0552.2641.1363.3709.2394.1069.1031.1924.2262.251.3627.0586.1366.0888.2834.0887.432 0 .0001 0-.0001 0 0 0 .3266-.1471.5831-.3576.7652-.2027.1753-.4624.2819-.7144.3427-.1448.0348-.3111.1288-.4888.2746-.1749.1433-.3432.3221-.492.5015-.14805.1786-.27215.3521-.35935.4813-.04347.0644-.07742.1173-.10025.1536-.01141.0182-.02001.0322-.02562.0414l-.00612.0101-.00132.0022-.26699-.1599c.30713-.0471.30715-.047.30716-.0469l-.00013-.0009-.00075-.0052c-.00069-.005-.00177-.0128-.00313-.0234-.00273-.0211-.00659-.0531-.01086-.0942-.00853-.0825-.01858-.2014-.02426-.3446-.00471-.1186-.00635-.2522-.0019-.3942.00547-.0067.01098-.0133.01652-.02.16394-.1977.3605-.4086.5766-.5857.2132-.1749.464-.3323.7364-.3979.1946-.0469.3517-.1202.4543-.2089.0947-.0819.1412-.1734.1412-.291 0-.0626-.0127-.1252-.0379-.1839-.0252-.0587-.0625-.1129-.1104-.1592-.0481-.0463-.1058-.0837-.1702-.1095-.0645-.0258-.1341-.0392-.2046-.0392-.4505 0-.7372.1631-.9341.3938-.20723.2429-.3337.5842-.40251.959-.04012.2186-.05895.4392-.06531.6425-.15727.1913-.28781.3743-.37981.5106-.04774.0707-.08544.1294-.11147.1708-.01302.0207-.02314.0372-.03016.0487l-.00817.0135-.00231.0039-.00069.0011-.00023.0004c-.00004.0001-.00016.0003.26671.1604-.30714.0471-.30716.047-.30718.0469l-.00017-.0012-.00038-.0026-.00122-.0085c-.00102-.0072-.00241-.0175-.00409-.0305-.00335-.0259-.00784-.0631-.01268-.1099-.00968-.0935-.02083-.2259-.02712-.3844-.0125-.315-.00623-.7423.07326-1.1753.07884-.4295.2347-.8925.54221-1.2529Zm.00436 3.0783c-.00001 0 .00002 0 0 0Zm0 0c-.06716.1133-.19797.1723-.32664.147-.12871-.0253-.22778-.1295-.24753-.26l.30718-.0469" clip-rule="evenodd"/>
  <path fill="#E0E0E0" d="M5.97825 21.7957s.12525.4295.23362 1.0386c.47734-.3584 1.0002-.6566 1.55588-.8874-1.52483-.8549-.9552-4.977-.9552-4.977.12735.2205.30743.4085.52528.5484.21784.1399.46717.2277.72726.256-.42369-.4085-.15412-4.6425.10891-7.454-.79001.4148-1.44941 1.0274-1.90876 1.7731-.45936.7458-.70167 1.5972-.70142 2.4646 0 0 .62573 6.1659-1.25254 7.2382-.00109-.0005 1.04179.6695 1.66697-.0005Z"/>
  <path fill="#45413C" fill-rule="evenodd" d="M8.34724 10.0608c.09447.0639.14663.1747.13596.2888-.13121 1.4025-.26375 3.1569-.31077 4.609-.02355.7271-.02539 1.3711.00393 1.855.01472.2428.03678.4361.06521.5756.01423.0699.02855.1187.04089.1501.00417.0107.00742.0175.0094.0214.08623.0927.10849.2295.05474.3456-.05616.1214-.18284.1933-.31507.1789-.30707-.0335-.60224-.1372-.86094-.3033-.04011-.0258-.07918-.053-.11712-.0814-.02724.3865-.04729.8943-.02485 1.4239.02354.5555.0933 1.1198.24238 1.5889.15102.4752.36734.8031.64781.9604.10417.0584.16594.1716.15897.2914-.00696.1198-.08144.2251-.19166.2708-.53197.2209-1.03218.5063-1.48858.849-.0863.0649-.1998.0801-.29995.0402-.10015-.0398-.17267-.129-.19165-.2357-.03985-.224-.08206-.4231-.11911-.584-.33207.1409-.6834.1114-.9511.0452-.19659-.0485-.3674-.1204-.48774-.179-.06071-.0296-.10993-.0564-.14474-.0763-.01743-.01-.03136-.0183-.04142-.0244l-.01229-.0076-.00428-.0028-.00239-.0015-.00289-.0019-.0061-.0042c-.00752-.0054-.05123-.2404.09308-.4062l-.06907-.1225c.35805-.2045.64213-.686.8425-1.3967.19612-.6957.29237-1.5399.33106-2.3673.03855-.8245.01938-1.618-.00962-2.2066-.01449-.2939-.03138-.5358-.04461-.7039-.00662-.084-.01232-.1495-.01634-.1938-.00201-.0221-.00359-.0389-.00467-.0501l-.00121-.0124-.00024-.0024c-.00114-.0108-.00173-.0219-.00173-.033-.00027-.9263.25857-1.8347.74804-2.6294.4894-.7945 1.19084-1.4454 2.02912-1.8856.10093-.05297.22258-.04616.31705.0178Zm-2.47283 4.482.00026.0027c.00118.0123.00288.0302.00499.0535.00424.0466.01015.1146.01697.2013.01365.1733.03097.4214.0458.7223.02962.6011.04949 1.416.00969 2.267-.03966.8482-.13916 1.7466-.35397 2.5086-.15249.5409-.37392 1.0526-.70515 1.4197.02951.0092.05987.0177.09086.0254.29217.0722.56764.0528.7678-.1617.07628-.0818.19021-.1162.29859-.0901.10838.026.19461.1085.22599.2161l-.29811.088c.29811-.088.2981-.0881.29811-.088l.00057.0019.00127.0045.00459.0161c.00392.014.00953.0342.01654.0602.01403.052.03371.1271.05678.2215.02039.0835.04348.1821.06769.2931.24554-.1604.50076-.3063.76428-.4372-.23466-.2688-.39624-.6098-.50878-.9639-.17297-.5442-.2467-1.1708-.27136-1.7527-.02477-.5847-.00053-1.1396.02961-1.5471.0151-.2041.03177-.3723.04472-.4898.00647-.0589.01203-.1051.01601-.1369.00199-.0159.00358-.0283.0047-.0368l.00132-.0098.00037-.0027.00011-.0008c.00001-.0001.00006-.0005.30777.0426l-.30771-.0431c.01825-.1321.11774-.238.24776-.2637.13002-.0258.26195.0343.32855.1497.10194.1765.24687.3283.42381.4419.03054.0197.06186.038.09389.0551-.01863-.1373-.03248-.2915-.04257-.4581-.03108-.5128-.02853-1.1795-.00476-1.9134.04088-1.2625.14533-2.7453.25752-4.0313-.51688.361-.95283.8205-1.27974 1.3513-.42657.6925-.65221 1.4814-.65477 2.2846Z" clip-rule="evenodd"/>
  <path fill="#00B8F0" d="M15.1529 12.9491 11.0195.630395c-.0312-.09234-.0919-.172802-.1733-.229861-.0815-.057059-.1797-.08779-.2804-.08779-.1007 0-.1988.030731-.2803.08779-.0815.057059-.1421.137521-.1733.229861L5.97827 12.9491h9.17463Z"/>
  <path fill="#4ACFFF" d="M11.6022 2.3659 11.0195.630395c-.0312-.09234-.0919-.172802-.1733-.229861-.0815-.057059-.1797-.08779-.2804-.08779-.1007 0-.1988.030731-.2803.08779-.0815.057059-.1421.137521-.1733.229861L5.97827 12.9491H8.0515l3.5507-10.5832Z"/>
  <path fill="#45413C" fill-rule="evenodd" d="M10.108.143799C10.2423.0497148 10.4026 0 10.5657 0c.1632 0 .3234.0497144.4578.143799.1345.094206.237.228737.29.385976l.0002.000524L15.4471 12.849c.032.0954.0164.2005-.042.2824-.0583.0818-.1523.1303-.2524.1303H5.97816c-.10008 0-.19404-.0485-.2524-.1303-.05835-.0819-.07397-.187-.04194-.2824L9.81792.529775c.05307-.157241.15553-.291771.29008-.385976Zm.4577.481608c-.0382 0-.0743.011746-.1029.031781-.0283.019852-.0472.046144-.0565.073492 0 .000084.0001-.000085 0 0L6.41102 12.6363h8.30888L10.7252.730933c0-.000063 0 .000063 0 0-.0093-.027373-.0282-.053878-.0566-.073745-.0286-.020035-.0646-.031781-.1029-.031781Z" clip-rule="evenodd"/>
  <path fill="#00B8F0" d="M18.3097 12.4193c-.0964-.0905-.2142-.1569-.3433-.1935-.1291-.0367-.2654-.0423-.3973-.0166-2.3113.3953-4.6561.5799-7.0033.5514-2.34738.029-4.69235-.1551-7.00391-.5498-.13186-.0257-.26823-.02-.39729.0166-.12905.0366-.24691.103-.34334.1934-.05225.0419-.09508.0937-.12589.1521-.0308.0584-.04893.1223-.05328.1877 0 .8885 3.54741 1.6084 7.92371 1.6084 4.3762 0 7.9231-.721 7.9231-1.6084-.0043-.0657-.0223-.1298-.0531-.1885s-.0737-.1107-.1261-.1528Z"/>
  <path fill="#45413C" fill-rule="evenodd" d="M17.5138 11.9014c.1782-.0341.3623-.0262.5369.0233.1722.0489.331.137.4626.2581.0808.0672.148.1496.1972.2432.051.0973.0813.2042.0884.3142.0005.0068.0007.0136.0007.0203 0 .2238-.1132.4074-.2536.5467-.1398.1387-.3295.2575-.546.3613-.4343.2085-1.043.3879-1.7701.5356-1.4594.2964-3.4618.4776-5.6641.4776-2.20235 0-4.20482-.181-5.66438-.4772-.72722-.1476-1.33595-.327-1.77038-.5356-.21646-.1038-.4062-.2227-.54606-.3615-.1405-.1393-.25356-.3231-.25356-.5469 0-.0069.00023-.0139.00069-.0208.0073-.1098.03771-.2165.08885-.3134.04916-.0933.11631-.1753.19697-.2421.13163-.121.29031-.209.46243-.2578.17454-.0495.35861-.0575.53678-.0234 2.29206.3912 4.61725.5737 6.94486.5449h.0075c2.3275.0282 4.6525-.1547 6.9443-.5465Zm.7959.5178-.2118.2287c-.0596-.0559-.1335-.0979-.2157-.1212-.0823-.0233-.1696-.027-.2539-.0105l-.0072.0013c-2.3285.3982-4.6907.5843-7.0553.5558-2.36473.029-4.7271-.1566-7.05587-.5543l-.00709-.0013c-.08435-.0164-.17164-.0127-.25397.0106-.08229.0234-.15621.0654-.21581.1213-.00584.0055-.0119.0107-.01815.0157-.01951.0157-.03462.0343-.04511.0542-.0081.0153-.01343.0314-.01608.0476.00096.0039.00289.0095.00678.0173.00849.017.02607.0433.06067.0777.07124.0706.19283.1538.37732.2423.36746.1764.9191.3436 1.62577.487 1.40821.2858 3.36757.4649 5.54154.4649 2.1739 0 4.1331-.1793 5.5412-.4653.7066-.1435 1.2582-.3107 1.6256-.487.1845-.0885.3061-.1717.3773-.2423.0346-.0343.0522-.0606.0607-.0776.0039-.0078.0058-.0134.0067-.0172-.0026-.0166-.008-.033-.0162-.0487-.0106-.0202-.0258-.039-.0455-.0549l.1941-.2441Z" clip-rule="evenodd"/>
</svg>
